<?xml version="1.0" encoding="utf-8"?>
<svg xmlns="http://www.w3.org/2000/svg" xmlns:xlink="http://www.w3.org/1999/xlink" width="750" height="750" viewBox="0 0 3000 3000">
<defs>
  <clipPath id="clip9400">
    <rect x="0" y="0" width="3000" height="3000"/>
  </clipPath>
</defs>
<path clip-path="url(#clip9400)" d="
M0 3000 L3000 3000 L3000 0 L0 0  Z
  " fill="#282637" fill-rule="evenodd" fill-opacity="1"/>
<defs>
  <clipPath id="clip9401">
    <rect x="600" y="300" width="2101" height="2101"/>
  </clipPath>
</defs>
<path clip-path="url(#clip9400)" d="
M147.865 2856.71 L2952.76 2856.71 L2952.76 47.2441 L147.865 47.2441  Z
  " fill="#282637" fill-rule="evenodd" fill-opacity="1"/>
<defs>
  <clipPath id="clip9402">
    <rect x="147" y="47" width="2806" height="2810"/>
  </clipPath>
</defs>
<polyline clip-path="url(#clip9402)" style="stroke:#b352cc; stroke-width:80; stroke-opacity:0.3; fill:none" points="
  771.174,1962.38 786.756,1916.65 802.339,1872.75 817.922,1830.67 833.505,1790.37 849.087,1751.82 864.67,1715 880.253,1679.88 895.836,1646.43 911.418,1614.62 
  927.001,1584.43 942.584,1555.82 958.166,1528.77 973.749,1503.25 989.332,1479.24 1004.91,1456.69 1020.5,1435.6 1036.08,1415.92 1051.66,1397.64 1067.25,1380.71 
  1082.83,1365.12 1098.41,1350.84 1113.99,1337.83 1129.58,1326.08 1145.16,1315.55 1160.74,1306.21 1176.32,1298.04 1191.91,1291.01 1207.49,1285.09 1223.07,1280.25 
  1238.66,1276.47 1254.24,1273.71 1269.82,1271.95 1285.4,1271.16 1300.99,1271.32 1316.57,1272.38 1332.15,1274.34 1347.73,1277.15 1363.32,1280.8 1378.9,1285.24 
  1394.48,1290.46 1410.07,1296.43 1425.65,1303.12 1441.23,1310.5 1456.81,1318.54 1472.4,1327.21 1487.98,1336.49 1503.56,1346.35 1519.14,1356.76 1534.73,1367.69 
  1550.31,1379.12 1565.89,1391.01 1581.48,1403.35 1597.06,1416.09 1612.64,1429.21 1628.22,1442.7 1643.81,1456.5 1659.39,1470.61 1674.97,1484.98 1690.55,1499.6 
  1706.14,1514.44 1721.72,1529.46 1737.3,1544.63 1752.89,1559.94 1768.47,1575.36 1784.05,1590.84 1799.63,1606.38 1815.22,1621.93 1830.8,1637.47 1846.38,1652.98 
  1861.96,1668.42 1877.55,1683.76 1893.13,1698.99 1908.71,1714.06 1924.3,1728.96 1939.88,1743.66 1955.46,1758.12 1971.04,1772.32 1986.63,1786.23 2002.21,1799.82 
  2017.79,1813.06 2033.37,1825.94 2048.96,1838.41 2064.54,1850.45 2080.12,1862.04 2095.71,1873.14 2111.29,1883.73 2126.87,1893.77 2142.45,1903.25 2158.04,1912.13 
  2173.62,1920.38 2189.2,1927.98 2204.78,1934.9 2220.37,1941.12 2235.95,1946.59 2251.53,1951.3 2267.12,1955.21 2282.7,1958.31 2298.28,1960.55 2313.86,1961.92 
  2329.45,1962.38 
  "/>
<circle clip-path="url(#clip9402)" cx="771.174" cy="1962.38" r="41" fill="#b352cc" fill-rule="evenodd" fill-opacity="0.3" stroke="#ffffff" stroke-opacity="0.3" stroke-width="0"/>
<circle clip-path="url(#clip9402)" cx="2329.45" cy="1962.38" r="41" fill="#b352cc" fill-rule="evenodd" fill-opacity="0.3" stroke="#ffffff" stroke-opacity="0.3" stroke-width="0"/>
<polyline clip-path="url(#clip9402)" style="stroke:#cc3333; stroke-width:80; stroke-opacity:0.6; fill:none" points="
  771.174,1962.38 786.756,1962.33 802.339,1961.97 817.922,1961.04 833.505,1959.3 849.087,1956.54 864.67,1952.61 880.253,1947.36 895.836,1940.67 911.418,1932.47 
  927.001,1922.69 942.584,1911.3 958.166,1898.27 973.749,1883.62 989.332,1867.37 1004.91,1849.55 1020.5,1830.22 1036.08,1809.45 1051.66,1787.33 1067.25,1763.95 
  1082.83,1739.4 1098.41,1713.82 1113.99,1687.3 1129.58,1660 1145.16,1632.03 1160.74,1603.54 1176.32,1574.66 1191.91,1545.55 1207.49,1516.34 1223.07,1487.19 
  1238.66,1458.23 1254.24,1429.62 1269.82,1401.49 1285.4,1373.99 1300.99,1347.25 1316.57,1321.4 1332.15,1296.58 1347.73,1272.89 1363.32,1250.47 1378.9,1229.42 
  1394.48,1209.84 1410.07,1191.82 1425.65,1175.46 1441.23,1160.83 1456.81,1148.01 1472.4,1137.06 1487.98,1128.02 1503.56,1120.95 1519.14,1115.87 1534.73,1112.81 
  1550.31,1111.79 1565.89,1112.81 1581.48,1115.87 1597.06,1120.95 1612.64,1128.02 1628.22,1137.06 1643.81,1148.01 1659.39,1160.83 1674.97,1175.46 1690.55,1191.82 
  1706.14,1209.84 1721.72,1229.42 1737.3,1250.47 1752.89,1272.89 1768.47,1296.58 1784.05,1321.4 1799.63,1347.25 1815.22,1373.99 1830.8,1401.49 1846.38,1429.62 
  1861.96,1458.23 1877.55,1487.19 1893.13,1516.34 1908.71,1545.55 1924.3,1574.66 1939.88,1603.54 1955.46,1632.03 1971.04,1660 1986.63,1687.3 2002.21,1713.82 
  2017.79,1739.4 2033.37,1763.95 2048.96,1787.33 2064.54,1809.45 2080.12,1830.22 2095.71,1849.55 2111.29,1867.37 2126.87,1883.62 2142.45,1898.27 2158.04,1911.3 
  2173.62,1922.69 2189.2,1932.47 2204.78,1940.67 2220.37,1947.36 2235.95,1952.61 2251.53,1956.54 2267.12,1959.3 2282.7,1961.04 2298.28,1961.97 2313.86,1962.33 
  2329.45,1962.38 
  "/>
<circle clip-path="url(#clip9402)" cx="771.174" cy="1962.38" r="41" fill="#cc3333" fill-rule="evenodd" fill-opacity="0.6" stroke="#ffffff" stroke-opacity="0.6" stroke-width="0"/>
<circle clip-path="url(#clip9402)" cx="2329.45" cy="1962.38" r="41" fill="#cc3333" fill-rule="evenodd" fill-opacity="0.6" stroke="#ffffff" stroke-opacity="0.6" stroke-width="0"/>
<polyline clip-path="url(#clip9402)" style="stroke:#218921; stroke-width:80; stroke-opacity:1; fill:none" points="
  771.174,1962.38 786.756,1962.38 802.339,1962.38 817.922,1962.38 833.505,1962.38 849.087,1962.38 864.67,1962.38 880.253,1962.37 895.836,1962.36 911.418,1962.33 
  927.001,1962.28 942.584,1962.19 958.166,1962.05 973.749,1961.82 989.332,1961.49 1004.91,1961.01 1020.5,1960.32 1036.08,1959.38 1051.66,1958.12 1067.25,1956.45 
  1082.83,1954.31 1098.41,1951.58 1113.99,1948.16 1129.58,1943.95 1145.16,1938.82 1160.74,1932.64 1176.32,1925.29 1191.91,1916.64 1207.49,1906.54 1223.07,1894.88 
  1238.66,1881.52 1254.24,1866.35 1269.82,1849.26 1285.4,1830.14 1300.99,1808.92 1316.57,1785.53 1332.15,1759.94 1347.73,1732.11 1363.32,1702.05 1378.9,1669.8 
  1394.48,1635.42 1410.07,1599 1425.65,1560.66 1441.23,1520.56 1456.81,1478.89 1472.4,1435.87 1487.98,1391.76 1503.56,1346.84 1519.14,1301.43 1534.73,1255.87 
  1550.31,1210.52 1565.89,1165.78 1581.48,1122.04 1597.06,1079.73 1612.64,1039.27 1628.22,1001.09 1643.81,965.616 1659.39,933.266 1674.97,904.446 1690.55,879.538 
  1706.14,858.9 1721.72,842.858 1737.3,831.695 1752.89,825.653 1768.47,824.922 1784.05,829.637 1799.63,839.874 1815.22,855.642 1830.8,876.885 1846.38,903.477 
  1861.96,935.223 1877.55,971.854 1893.13,1013.03 1908.71,1058.35 1924.3,1107.35 1939.88,1159.49 1955.46,1214.2 1971.04,1270.85 1986.63,1328.77 2002.21,1387.29 
  2017.79,1445.71 2033.37,1503.31 2048.96,1559.43 2064.54,1613.39 2080.12,1664.6 2095.71,1712.48 2111.29,1756.57 2126.87,1796.47 2142.45,1831.89 2158.04,1862.66 
  2173.62,1888.73 2189.2,1910.17 2204.78,1927.19 2220.37,1940.13 2235.95,1949.44 2251.53,1955.66 2267.12,1959.42 2282.7,1961.37 2298.28,1962.16 2313.86,1962.36 
  2329.45,1962.38 
  "/>
<circle clip-path="url(#clip9402)" cx="771.174" cy="1962.38" r="41" fill="#218921" fill-rule="evenodd" fill-opacity="1" stroke="#ffffff" stroke-opacity="1" stroke-width="0"/>
<circle clip-path="url(#clip9402)" cx="2329.45" cy="1962.38" r="41" fill="#218921" fill-rule="evenodd" fill-opacity="1" stroke="#ffffff" stroke-opacity="1" stroke-width="0"/>
<polyline clip-path="url(#clip9402)" style="stroke:#ffffff; stroke-width:80; stroke-opacity:1; fill:none" points="
  771.174,2079.03 2329.45,2079.03 
  "/>
<circle clip-path="url(#clip9402)" cx="771.174" cy="2079.03" r="41" fill="#ffffff" fill-rule="evenodd" fill-opacity="1" stroke="none"/>
<circle clip-path="url(#clip9402)" cx="2329.45" cy="2079.03" r="41" fill="#ffffff" fill-rule="evenodd" fill-opacity="1" stroke="none"/>
</svg>
