<?xml version="1.0" encoding="utf-8"?>
<svg xmlns="http://www.w3.org/2000/svg" xmlns:xlink="http://www.w3.org/1999/xlink" width="450" height="450" viewBox="0 0 1800 1800">
<defs>
  <clipPath id="clip8800">
    <rect x="0" y="0" width="1800" height="1800"/>
  </clipPath>
</defs>
<path clip-path="url(#clip8800)" d="
M0 1800 L1800 1800 L1800 0 L0 0  Z
  " fill="#282637" fill-rule="evenodd" fill-opacity="1"/>
<defs>
  <clipPath id="clip8801">
    <rect x="360" y="180" width="1261" height="1261"/>
  </clipPath>
</defs>
<path clip-path="url(#clip8800)" d="
M135.865 1668.71 L1752.76 1668.71 L1752.76 47.2441 L135.865 47.2441  Z
  " fill="#282637" fill-rule="evenodd" fill-opacity="1"/>
<defs>
  <clipPath id="clip8802">
    <rect x="135" y="47" width="1618" height="1622"/>
  </clipPath>
</defs>
<polyline clip-path="url(#clip8802)" style="stroke:#b352cc; stroke-width:80; stroke-opacity:0.3; fill:none" points="
  495.174,1152.55 504.156,1126.16 513.139,1100.82 522.122,1076.54 531.105,1053.28 540.087,1031.03 549.07,1009.78 558.053,989.51 567.036,970.204 576.018,951.846 
  585.001,934.419 593.984,917.909 602.966,902.297 611.949,887.569 620.932,873.709 629.915,860.699 638.897,848.524 647.88,837.167 656.863,826.614 665.846,816.846 
  674.828,807.849 683.811,799.606 692.794,792.1 701.777,785.316 710.759,779.238 719.742,773.85 728.725,769.134 737.707,765.076 746.69,761.659 755.673,758.866 
  764.656,756.682 773.638,755.09 782.621,754.075 791.604,753.62 800.587,753.709 809.569,754.326 818.552,755.454 827.535,757.078 836.517,759.181 845.5,761.747 
  854.483,764.761 863.466,768.205 872.448,772.064 881.431,776.322 890.414,780.962 899.397,785.968 908.379,791.325 917.362,797.015 926.345,803.023 935.327,809.333 
  944.31,815.928 953.293,822.792 962.276,829.91 971.258,837.264 980.241,844.84 989.224,852.62 998.207,860.588 1007.19,868.729 1016.17,877.026 1025.15,885.463 
  1034.14,894.024 1043.12,902.693 1052.1,911.453 1061.09,920.289 1070.07,929.184 1079.05,938.122 1088.03,947.087 1097.02,956.063 1106,965.033 1114.98,973.982 
  1123.96,982.893 1132.95,991.75 1141.93,1000.54 1150.91,1009.24 1159.9,1017.84 1168.88,1026.32 1177.86,1034.66 1186.84,1042.86 1195.83,1050.89 1204.81,1058.73 
  1213.79,1066.38 1222.77,1073.81 1231.76,1081 1240.74,1087.95 1249.72,1094.64 1258.71,1101.05 1267.69,1107.16 1276.67,1112.96 1285.65,1118.43 1294.64,1123.55 
  1303.62,1128.31 1312.6,1132.7 1321.58,1136.7 1330.57,1140.28 1339.55,1143.44 1348.53,1146.16 1357.52,1148.42 1366.5,1150.2 1375.48,1151.5 1384.46,1152.28 
  1393.45,1152.55 
  "/>
<circle clip-path="url(#clip8802)" cx="495.174" cy="1152.55" r="41" fill="#b352cc" fill-rule="evenodd" fill-opacity="0.3" stroke="#ffffff" stroke-opacity="0.3" stroke-width="0"/>
<circle clip-path="url(#clip8802)" cx="1393.45" cy="1152.55" r="41" fill="#b352cc" fill-rule="evenodd" fill-opacity="0.3" stroke="#ffffff" stroke-opacity="0.3" stroke-width="0"/>
<polyline clip-path="url(#clip8802)" style="stroke:#cc3333; stroke-width:80; stroke-opacity:0.6; fill:none" points="
  495.174,1152.55 504.156,1152.52 513.139,1152.32 522.122,1151.78 531.105,1150.77 540.087,1149.18 549.07,1146.91 558.053,1143.88 567.036,1140.03 576.018,1135.29 
  585.001,1129.65 593.984,1123.07 602.966,1115.55 611.949,1107.1 620.932,1097.72 629.915,1087.43 638.897,1076.28 647.88,1064.29 656.863,1051.52 665.846,1038.03 
  674.828,1023.86 683.811,1009.09 692.794,993.794 701.777,978.035 710.759,961.893 719.742,945.449 728.725,928.784 737.707,911.982 746.69,895.125 755.673,878.299 
  764.656,861.587 773.638,845.074 782.621,828.84 791.604,812.967 800.587,797.534 809.569,782.616 818.552,768.288 827.535,754.62 836.517,741.679 845.5,729.528 
  854.483,718.226 863.466,707.829 872.448,698.387 881.431,689.945 890.414,682.545 899.397,676.222 908.379,671.007 917.362,666.925 926.345,663.994 935.327,662.231 
  944.31,661.642 953.293,662.231 962.276,663.994 971.258,666.925 980.241,671.007 989.224,676.222 998.207,682.545 1007.19,689.945 1016.17,698.387 1025.15,707.829 
  1034.14,718.226 1043.12,729.528 1052.1,741.679 1061.09,754.62 1070.07,768.288 1079.05,782.616 1088.03,797.534 1097.02,812.967 1106,828.84 1114.98,845.074 
  1123.96,861.587 1132.95,878.299 1141.93,895.125 1150.91,911.982 1159.9,928.784 1168.88,945.449 1177.86,961.893 1186.84,978.035 1195.83,993.794 1204.81,1009.09 
  1213.79,1023.86 1222.77,1038.03 1231.76,1051.52 1240.74,1064.29 1249.72,1076.28 1258.71,1087.43 1267.69,1097.72 1276.67,1107.1 1285.65,1115.55 1294.64,1123.07 
  1303.62,1129.65 1312.6,1135.29 1321.58,1140.03 1330.57,1143.88 1339.55,1146.91 1348.53,1149.18 1357.52,1150.77 1366.5,1151.78 1375.48,1152.32 1384.46,1152.52 
  1393.45,1152.55 
  "/>
<circle clip-path="url(#clip8802)" cx="495.174" cy="1152.55" r="41" fill="#cc3333" fill-rule="evenodd" fill-opacity="0.6" stroke="#ffffff" stroke-opacity="0.6" stroke-width="0"/>
<circle clip-path="url(#clip8802)" cx="1393.45" cy="1152.55" r="41" fill="#cc3333" fill-rule="evenodd" fill-opacity="0.6" stroke="#ffffff" stroke-opacity="0.6" stroke-width="0"/>
<polyline clip-path="url(#clip8802)" style="stroke:#218921; stroke-width:80; stroke-opacity:1; fill:none" points="
  495.174,1152.55 504.156,1152.55 513.139,1152.55 522.122,1152.55 531.105,1152.55 540.087,1152.55 549.07,1152.55 558.053,1152.55 567.036,1152.54 576.018,1152.52 
  585.001,1152.49 593.984,1152.44 602.966,1152.36 611.949,1152.23 620.932,1152.04 629.915,1151.76 638.897,1151.36 647.88,1150.82 656.863,1150.09 665.846,1149.13 
  674.828,1147.89 683.811,1146.32 692.794,1144.35 701.777,1141.91 710.759,1138.95 719.742,1135.39 728.725,1131.15 737.707,1126.15 746.69,1120.33 755.673,1113.6 
  764.656,1105.89 773.638,1097.13 782.621,1087.26 791.604,1076.23 800.587,1063.98 809.569,1050.49 818.552,1035.71 827.535,1019.65 836.517,1002.31 845.5,983.694 
  854.483,963.851 863.466,942.83 872.448,920.702 881.431,897.559 890.414,873.51 899.397,848.682 908.379,823.224 917.362,797.299 926.345,771.09 935.327,744.794 
  944.31,718.622 953.293,692.799 962.276,667.557 971.258,643.137 980.241,619.786 989.224,597.75 998.207,577.276 1007.19,558.606 1016.17,541.972 1025.15,527.597 
  1034.14,515.686 1043.12,506.427 1052.1,499.985 1061.09,496.498 1070.07,496.076 1079.05,498.797 1088.03,504.705 1097.02,513.806 1106,526.066 1114.98,541.414 
  1123.96,559.735 1132.95,580.877 1141.93,604.643 1150.91,630.8 1159.9,659.078 1168.88,689.171 1177.86,720.745 1186.84,753.439 1195.83,786.871 1204.81,820.645 
  1213.79,854.358 1222.77,887.605 1231.76,919.991 1240.74,951.137 1249.72,980.688 1258.71,1008.32 1267.69,1033.77 1276.67,1056.8 1285.65,1077.24 1294.64,1095 
  1303.62,1110.05 1312.6,1122.42 1321.58,1132.25 1330.57,1139.71 1339.55,1145.08 1348.53,1148.67 1357.52,1150.84 1366.5,1151.97 1375.48,1152.43 1384.46,1152.54 
  1393.45,1152.55 
  "/>
<circle clip-path="url(#clip8802)" cx="495.174" cy="1152.55" r="41" fill="#218921" fill-rule="evenodd" fill-opacity="1" stroke="#ffffff" stroke-opacity="1" stroke-width="0"/>
<circle clip-path="url(#clip8802)" cx="1393.45" cy="1152.55" r="41" fill="#218921" fill-rule="evenodd" fill-opacity="1" stroke="#ffffff" stroke-opacity="1" stroke-width="0"/>
<polyline clip-path="url(#clip8802)" style="stroke:#ffffff; stroke-width:80; stroke-opacity:1; fill:none" points="
  495.174,1219.88 1393.45,1219.88 
  "/>
<circle clip-path="url(#clip8802)" cx="495.174" cy="1219.88" r="41" fill="#ffffff" fill-rule="evenodd" fill-opacity="1" stroke="none"/>
<circle clip-path="url(#clip8802)" cx="1393.45" cy="1219.88" r="41" fill="#ffffff" fill-rule="evenodd" fill-opacity="1" stroke="none"/>
</svg>
