<?xml version="1.0" encoding="utf-8"?>
<svg xmlns="http://www.w3.org/2000/svg" xmlns:xlink="http://www.w3.org/1999/xlink" width="600" height="600" viewBox="0 0 2400 2400">
<defs>
  <clipPath id="clip9100">
    <rect x="0" y="0" width="2400" height="2400"/>
  </clipPath>
</defs>
<path clip-path="url(#clip9100)" d="
M0 2400 L2400 2400 L2400 0 L0 0  Z
  " fill="#282637" fill-rule="evenodd" fill-opacity="1"/>
<defs>
  <clipPath id="clip9101">
    <rect x="480" y="240" width="1681" height="1681"/>
  </clipPath>
</defs>
<path clip-path="url(#clip9100)" d="
M141.865 2262.71 L2352.76 2262.71 L2352.76 47.2441 L141.865 47.2441  Z
  " fill="#282637" fill-rule="evenodd" fill-opacity="1"/>
<defs>
  <clipPath id="clip9102">
    <rect x="141" y="47" width="2212" height="2216"/>
  </clipPath>
</defs>
<polyline clip-path="url(#clip9102)" style="stroke:#b352cc; stroke-width:80; stroke-opacity:0.3; fill:none" points="
  633.174,1557.47 645.456,1521.4 657.739,1486.79 670.022,1453.6 682.305,1421.82 694.587,1391.43 706.87,1362.39 719.153,1334.7 731.436,1308.32 743.718,1283.23 
  756.001,1259.42 768.284,1236.86 780.566,1215.53 792.849,1195.41 805.132,1176.47 817.415,1158.7 829.697,1142.06 841.98,1126.54 854.263,1112.12 866.546,1098.78 
  878.828,1086.49 891.111,1075.22 903.394,1064.97 915.677,1055.7 927.959,1047.39 940.242,1040.03 952.525,1033.59 964.807,1028.04 977.09,1023.37 989.373,1019.56 
  1001.66,1016.57 1013.94,1014.4 1026.22,1013.01 1038.5,1012.39 1050.79,1012.51 1063.07,1013.35 1075.35,1014.9 1087.63,1017.12 1099.92,1019.99 1112.2,1023.5 
  1124.48,1027.61 1136.77,1032.32 1149.05,1037.59 1161.33,1043.41 1173.61,1049.75 1185.9,1056.59 1198.18,1063.91 1210.46,1071.68 1222.74,1079.89 1235.03,1088.51 
  1247.31,1097.52 1259.59,1106.9 1271.88,1116.63 1284.16,1126.68 1296.44,1137.03 1308.72,1147.66 1321.01,1158.55 1333.29,1169.67 1345.57,1181.01 1357.85,1192.53 
  1370.14,1204.23 1382.42,1216.07 1394.7,1228.04 1406.99,1240.12 1419.27,1252.27 1431.55,1264.48 1443.83,1276.73 1456.12,1289 1468.4,1301.25 1480.68,1313.48 
  1492.96,1325.65 1505.25,1337.76 1517.53,1349.76 1529.81,1361.65 1542.1,1373.4 1554.38,1384.99 1566.66,1396.39 1578.94,1407.59 1591.23,1418.56 1603.51,1429.27 
  1615.79,1439.72 1628.07,1449.87 1640.36,1459.71 1652.64,1469.2 1664.92,1478.34 1677.21,1487.09 1689.49,1495.44 1701.77,1503.36 1714.05,1510.84 1726.34,1517.84 
  1738.62,1524.35 1750.9,1530.34 1763.18,1535.8 1775.47,1540.7 1787.75,1545.01 1800.03,1548.73 1812.32,1551.81 1824.6,1554.25 1836.88,1556.02 1849.16,1557.1 
  1861.45,1557.47 
  "/>
<circle clip-path="url(#clip9102)" cx="633.174" cy="1557.47" r="41" fill="#b352cc" fill-rule="evenodd" fill-opacity="0.3" stroke="#ffffff" stroke-opacity="0.3" stroke-width="0"/>
<circle clip-path="url(#clip9102)" cx="1861.45" cy="1557.47" r="41" fill="#b352cc" fill-rule="evenodd" fill-opacity="0.3" stroke="#ffffff" stroke-opacity="0.3" stroke-width="0"/>
<polyline clip-path="url(#clip9102)" style="stroke:#cc3333; stroke-width:80; stroke-opacity:0.6; fill:none" points="
  633.174,1557.47 645.456,1557.42 657.739,1557.14 670.022,1556.41 682.305,1555.03 694.587,1552.86 706.87,1549.76 719.153,1545.62 731.436,1540.35 743.718,1533.88 
  756.001,1526.17 768.284,1517.19 780.566,1506.91 792.849,1495.36 805.132,1482.54 817.415,1468.49 829.697,1453.25 841.98,1436.87 854.263,1419.43 866.546,1400.99 
  878.828,1381.63 891.111,1361.46 903.394,1340.55 915.677,1319.02 927.959,1296.96 940.242,1274.49 952.525,1251.72 964.807,1228.77 977.09,1205.73 989.373,1182.74 
  1001.66,1159.91 1013.94,1137.35 1026.22,1115.17 1038.5,1093.48 1050.79,1072.39 1063.07,1052.01 1075.35,1032.43 1087.63,1013.76 1099.92,996.075 1112.2,979.472 
  1124.48,964.031 1136.77,949.825 1149.05,936.923 1161.33,925.39 1173.61,915.279 1185.9,906.639 1198.18,899.514 1210.46,893.936 1222.74,889.932 1235.03,887.522 
  1247.31,886.718 1259.59,887.522 1271.88,889.932 1284.16,893.936 1296.44,899.514 1308.72,906.639 1321.01,915.279 1333.29,925.39 1345.57,936.923 1357.85,949.825 
  1370.14,964.031 1382.42,979.472 1394.7,996.075 1406.99,1013.76 1419.27,1032.43 1431.55,1052.01 1443.83,1072.39 1456.12,1093.48 1468.4,1115.17 1480.68,1137.35 
  1492.96,1159.91 1505.25,1182.74 1517.53,1205.73 1529.81,1228.77 1542.1,1251.72 1554.38,1274.49 1566.66,1296.96 1578.94,1319.02 1591.23,1340.55 1603.51,1361.46 
  1615.79,1381.63 1628.07,1400.99 1640.36,1419.43 1652.64,1436.87 1664.92,1453.25 1677.21,1468.49 1689.49,1482.54 1701.77,1495.36 1714.05,1506.91 1726.34,1517.19 
  1738.62,1526.17 1750.9,1533.88 1763.18,1540.35 1775.47,1545.62 1787.75,1549.76 1800.03,1552.86 1812.32,1555.03 1824.6,1556.41 1836.88,1557.14 1849.16,1557.42 
  1861.45,1557.47 
  "/>
<circle clip-path="url(#clip9102)" cx="633.174" cy="1557.47" r="41" fill="#cc3333" fill-rule="evenodd" fill-opacity="0.6" stroke="#ffffff" stroke-opacity="0.6" stroke-width="0"/>
<circle clip-path="url(#clip9102)" cx="1861.45" cy="1557.47" r="41" fill="#cc3333" fill-rule="evenodd" fill-opacity="0.6" stroke="#ffffff" stroke-opacity="0.6" stroke-width="0"/>
<polyline clip-path="url(#clip9102)" style="stroke:#218921; stroke-width:80; stroke-opacity:1; fill:none" points="
  633.174,1557.47 645.456,1557.47 657.739,1557.47 670.022,1557.47 682.305,1557.46 694.587,1557.46 706.87,1557.46 719.153,1557.46 731.436,1557.45 743.718,1557.43 
  756.001,1557.39 768.284,1557.32 780.566,1557.2 792.849,1557.03 805.132,1556.76 817.415,1556.38 829.697,1555.84 841.98,1555.1 854.263,1554.1 866.546,1552.79 
  878.828,1551.1 891.111,1548.95 903.394,1546.25 915.677,1542.93 927.959,1538.89 940.242,1534.02 952.525,1528.22 964.807,1521.4 977.09,1513.44 989.373,1504.24 
  1001.66,1493.71 1013.94,1481.74 1026.22,1468.26 1038.5,1453.18 1050.79,1436.45 1063.07,1418.01 1075.35,1397.82 1087.63,1375.88 1099.92,1352.18 1112.2,1326.75 
  1124.48,1299.64 1136.77,1270.91 1149.05,1240.68 1161.33,1209.06 1173.61,1176.2 1185.9,1142.28 1198.18,1107.49 1210.46,1072.07 1222.74,1036.26 1235.03,1000.33 
  1247.31,964.572 1259.59,929.288 1271.88,894.799 1284.16,861.434 1296.44,829.528 1308.72,799.42 1321.01,771.446 1333.29,745.936 1345.57,723.209 1357.85,703.568 
  1370.14,687.293 1382.42,674.642 1394.7,665.84 1406.99,661.075 1419.27,660.499 1431.55,664.217 1443.83,672.289 1456.12,684.724 1468.4,701.475 1480.68,722.446 
  1492.96,747.479 1505.25,776.365 1517.53,808.838 1529.81,844.577 1542.1,883.214 1554.38,924.332 1566.66,967.473 1578.94,1012.14 1591.23,1057.82 1603.51,1103.97 
  1615.79,1150.03 1628.07,1195.46 1640.36,1239.71 1652.64,1282.26 1664.92,1322.64 1677.21,1360.4 1689.49,1395.17 1701.77,1426.63 1714.05,1454.57 1726.34,1478.83 
  1738.62,1499.39 1750.9,1516.3 1763.18,1529.72 1775.47,1539.92 1787.75,1547.26 1800.03,1552.17 1812.32,1555.13 1824.6,1556.67 1836.88,1557.3 1849.16,1557.45 
  1861.45,1557.47 
  "/>
<circle clip-path="url(#clip9102)" cx="633.174" cy="1557.47" r="41" fill="#218921" fill-rule="evenodd" fill-opacity="1" stroke="#ffffff" stroke-opacity="1" stroke-width="0"/>
<circle clip-path="url(#clip9102)" cx="1861.45" cy="1557.47" r="41" fill="#218921" fill-rule="evenodd" fill-opacity="1" stroke="#ffffff" stroke-opacity="1" stroke-width="0"/>
<polyline clip-path="url(#clip9102)" style="stroke:#ffffff; stroke-width:80; stroke-opacity:1; fill:none" points="
  633.174,1649.45 1861.45,1649.45 
  "/>
<circle clip-path="url(#clip9102)" cx="633.174" cy="1649.45" r="41" fill="#ffffff" fill-rule="evenodd" fill-opacity="1" stroke="none"/>
<circle clip-path="url(#clip9102)" cx="1861.45" cy="1649.45" r="41" fill="#ffffff" fill-rule="evenodd" fill-opacity="1" stroke="none"/>
</svg>
