<?xml version="1.0" encoding="utf-8"?>
<svg xmlns="http://www.w3.org/2000/svg" xmlns:xlink="http://www.w3.org/1999/xlink" width="600" height="400" viewBox="0 0 2400 1600">
<defs>
  <clipPath id="clip0500">
    <rect x="0" y="0" width="2400" height="1600"/>
  </clipPath>
</defs>
<path clip-path="url(#clip0500)" d="
M0 1600 L2400 1600 L2400 0 L0 0  Z
  " fill="#ffffff" fill-rule="evenodd" fill-opacity="1"/>
<defs>
  <clipPath id="clip0501">
    <rect x="480" y="0" width="1681" height="1600"/>
  </clipPath>
</defs>
<path clip-path="url(#clip0500)" d="
M153.898 1487.47 L2352.76 1487.47 L2352.76 47.2441 L153.898 47.2441  Z
  " fill="#ffffff" fill-rule="evenodd" fill-opacity="1"/>
<defs>
  <clipPath id="clip0502">
    <rect x="153" y="47" width="2200" height="1441"/>
  </clipPath>
</defs>
<polyline clip-path="url(#clip0502)" style="stroke:#b352cc; stroke-width:60; stroke-opacity:1; fill:none" points="
  216.13,1438 218.723,1437.73 221.316,1437.46 223.909,1437.18 226.502,1436.9 229.095,1436.6 231.688,1436.3 234.281,1435.99 236.874,1435.67 239.467,1435.34 
  242.06,1435.01 244.653,1434.67 247.246,1434.31 249.839,1433.95 252.432,1433.58 255.025,1433.2 257.618,1432.81 260.211,1432.41 262.804,1432 265.397,1431.58 
  267.99,1431.15 270.583,1430.71 273.176,1430.26 275.769,1429.79 278.362,1429.32 280.955,1428.83 283.548,1428.33 286.141,1427.83 288.734,1427.3 291.327,1426.77 
  293.92,1426.22 296.513,1425.66 299.106,1425.09 301.699,1424.5 304.292,1423.9 306.885,1423.29 309.478,1422.66 312.071,1422.02 314.664,1421.36 317.257,1420.69 
  319.85,1420 322.443,1419.3 325.036,1418.58 327.628,1417.85 330.221,1417.1 332.814,1416.34 335.407,1415.55 338,1414.75 340.593,1413.93 343.186,1413.1 
  345.779,1412.25 348.372,1411.38 350.965,1410.49 353.558,1409.58 356.151,1408.65 358.744,1407.71 361.337,1406.74 363.93,1405.76 366.523,1404.75 369.116,1403.72 
  371.709,1402.68 374.302,1401.61 376.895,1400.52 379.488,1399.41 382.081,1398.28 384.674,1397.13 387.267,1395.95 389.86,1394.75 392.453,1393.53 395.046,1392.28 
  397.639,1391.01 400.232,1389.72 402.825,1388.4 405.418,1387.06 408.011,1385.69 410.604,1384.3 413.197,1382.89 415.79,1381.44 418.383,1379.97 420.976,1378.48 
  423.569,1376.96 426.162,1375.41 428.755,1373.84 431.348,1372.23 433.941,1370.6 436.534,1368.95 439.127,1367.26 441.72,1365.54 444.313,1363.8 446.906,1362.03 
  449.499,1360.23 452.092,1358.4 454.685,1356.54 457.278,1354.64 459.871,1352.72 462.464,1350.77 465.057,1348.79 467.65,1346.78 470.243,1344.73 472.836,1342.66 
  475.429,1340.55 478.022,1338.41 480.615,1336.24 483.208,1334.04 485.801,1331.8 488.394,1329.53 490.987,1327.23 493.58,1324.89 496.173,1322.53 498.766,1320.13 
  501.359,1317.69 503.952,1315.22 506.545,1312.72 509.138,1310.18 511.731,1307.61 514.324,1305.01 516.917,1302.37 519.51,1299.7 522.103,1296.99 524.696,1294.25 
  527.289,1291.47 529.882,1288.66 532.475,1285.81 535.068,1282.93 537.661,1280.02 540.254,1277.06 542.847,1274.08 545.44,1271.06 548.033,1268 550.626,1264.91 
  553.219,1261.78 555.812,1258.62 558.405,1255.42 560.998,1252.19 563.591,1248.93 566.184,1245.63 568.777,1242.29 571.37,1238.92 573.963,1235.52 576.556,1232.08 
  579.149,1228.61 581.742,1225.1 584.335,1221.56 586.928,1217.99 589.521,1214.38 592.114,1210.74 594.707,1207.06 597.3,1203.36 599.893,1199.62 602.486,1195.84 
  605.079,1192.04 607.672,1188.2 610.265,1184.34 612.858,1180.44 615.451,1176.51 618.044,1172.55 620.637,1168.56 623.23,1164.54 625.823,1160.49 628.416,1156.41 
  631.009,1152.3 633.602,1148.16 636.195,1144 638.788,1139.81 641.381,1135.59 643.974,1131.35 646.567,1127.08 649.16,1122.78 651.753,1118.46 654.346,1114.12 
  656.939,1109.75 659.532,1105.35 662.125,1100.94 664.718,1096.5 667.311,1092.05 669.904,1087.57 672.497,1083.07 675.09,1078.55 677.683,1074.01 680.276,1069.45 
  682.869,1064.88 685.462,1060.29 688.055,1055.68 690.647,1051.06 693.24,1046.43 695.833,1041.78 698.426,1037.11 701.019,1032.44 703.612,1027.75 706.205,1023.05 
  708.798,1018.35 711.391,1013.63 713.984,1008.9 716.577,1004.17 719.17,999.434 721.763,994.69 724.356,989.942 726.949,985.19 729.542,980.435 732.135,975.678 
  734.728,970.92 737.321,966.162 739.914,961.406 742.507,956.651 745.1,951.899 747.693,947.151 750.286,942.407 752.879,937.67 755.472,932.939 758.065,928.217 
  760.658,923.503 763.251,918.799 765.844,914.107 768.437,909.426 771.03,904.758 773.623,900.105 776.216,895.466 778.809,890.844 781.402,886.239 783.995,881.653 
  786.588,877.085 789.181,872.539 791.774,868.014 794.367,863.512 796.96,859.033 799.553,854.579 802.146,850.151 804.739,845.75 807.332,841.378 809.925,837.034 
  812.518,832.721 815.111,828.438 817.704,824.189 820.297,819.972 822.89,815.791 825.483,811.645 828.076,807.535 830.669,803.463 833.262,799.431 835.855,795.437 
  838.448,791.485 841.041,787.575 843.634,783.708 846.227,779.885 848.82,776.106 851.413,772.374 854.006,768.689 856.599,765.052 859.192,761.464 861.785,757.926 
  864.378,754.438 866.971,751.003 869.564,747.621 872.157,744.292 874.75,741.018 877.343,737.8 879.936,734.638 882.529,731.534 885.122,728.488 887.715,725.501 
  890.308,722.574 892.901,719.708 895.494,716.904 898.087,714.162 900.68,711.483 903.273,708.869 905.866,706.319 908.459,703.834 911.052,701.416 913.645,699.065 
  916.238,696.781 918.831,694.565 921.424,692.419 924.017,690.341 926.61,688.334 929.203,686.398 931.796,684.533 934.389,682.74 936.982,681.019 939.575,679.371 
  942.168,677.796 944.761,676.295 947.354,674.869 949.947,673.517 952.54,672.24 955.133,671.039 957.726,669.913 960.319,668.864 962.912,667.891 965.505,666.995 
  968.098,666.175 970.691,665.434 973.284,664.769 975.877,664.183 978.47,663.674 981.063,663.243 983.656,662.89 986.249,662.616 988.842,662.42 991.435,662.302 
  994.028,662.263 996.621,662.302 999.214,662.42 1001.81,662.616 1004.4,662.89 1006.99,663.243 1009.59,663.674 1012.18,664.183 1014.77,664.769 1017.36,665.434 
  1019.96,666.175 1022.55,666.995 1025.14,667.891 1027.74,668.864 1030.33,669.913 1032.92,671.039 1035.52,672.24 1038.11,673.517 1040.7,674.869 1043.29,676.295 
  1045.89,677.796 1048.48,679.371 1051.07,681.019 1053.67,682.74 1056.26,684.533 1058.85,686.398 1061.45,688.334 1064.04,690.341 1066.63,692.419 1069.22,694.565 
  1071.82,696.781 1074.41,699.065 1077,701.416 1079.6,703.834 1082.19,706.319 1084.78,708.869 1087.38,711.483 1089.97,714.162 1092.56,716.904 1095.15,719.708 
  1097.75,722.574 1100.34,725.501 1102.93,728.488 1105.53,731.534 1108.12,734.638 1110.71,737.8 1113.31,741.018 1115.9,744.292 1118.49,747.621 1121.08,751.003 
  1123.68,754.438 1126.27,757.926 1128.86,761.464 1131.46,765.052 1134.05,768.689 1136.64,772.374 1139.24,776.106 1141.83,779.885 1144.42,783.708 1147.01,787.575 
  1149.61,791.485 1152.2,795.437 1154.79,799.431 1157.39,803.463 1159.98,807.535 1162.57,811.645 1165.17,815.791 1167.76,819.972 1170.35,824.189 1172.94,828.438 
  1175.54,832.721 1178.13,837.034 1180.72,841.378 1183.32,845.75 1185.91,850.151 1188.5,854.579 1191.1,859.033 1193.69,863.512 1196.28,868.014 1198.87,872.539 
  1201.47,877.085 1204.06,881.653 1206.65,886.239 1209.25,890.844 1211.84,895.466 1214.43,900.105 1217.03,904.758 1219.62,909.426 1222.21,914.107 1224.8,918.799 
  1227.4,923.503 1229.99,928.217 1232.58,932.939 1235.18,937.67 1237.77,942.407 1240.36,947.151 1242.95,951.899 1245.55,956.651 1248.14,961.406 1250.73,966.162 
  1253.33,970.92 1255.92,975.678 1258.51,980.435 1261.11,985.19 1263.7,989.942 1266.29,994.69 1268.88,999.434 1271.48,1004.17 1274.07,1008.9 1276.66,1013.63 
  1279.26,1018.35 1281.85,1023.05 1284.44,1027.75 1287.04,1032.44 1289.63,1037.11 1292.22,1041.78 1294.81,1046.43 1297.41,1051.06 1300,1055.68 1302.59,1060.29 
  1305.19,1064.88 1307.78,1069.45 1310.37,1074.01 1312.97,1078.55 1315.56,1083.07 1318.15,1087.57 1320.74,1092.05 1323.34,1096.5 1325.93,1100.94 1328.52,1105.35 
  1331.12,1109.75 1333.71,1114.12 1336.3,1118.46 1338.9,1122.78 1341.49,1127.08 1344.08,1131.35 1346.67,1135.59 1349.27,1139.81 1351.86,1144 1354.45,1148.16 
  1357.05,1152.3 1359.64,1156.41 1362.23,1160.49 1364.83,1164.54 1367.42,1168.56 1370.01,1172.55 1372.6,1176.51 1375.2,1180.44 1377.79,1184.34 1380.38,1188.2 
  1382.98,1192.04 1385.57,1195.84 1388.16,1199.62 1390.76,1203.36 1393.35,1207.06 1395.94,1210.74 1398.53,1214.38 1401.13,1217.99 1403.72,1221.56 1406.31,1225.1 
  1408.91,1228.61 1411.5,1232.08 1414.09,1235.52 1416.69,1238.92 1419.28,1242.29 1421.87,1245.63 1424.46,1248.93 1427.06,1252.19 1429.65,1255.42 1432.24,1258.62 
  1434.84,1261.78 1437.43,1264.91 1440.02,1268 1442.62,1271.06 1445.21,1274.08 1447.8,1277.06 1450.39,1280.02 1452.99,1282.93 1455.58,1285.81 1458.17,1288.66 
  1460.77,1291.47 1463.36,1294.25 1465.95,1296.99 1468.55,1299.7 1471.14,1302.37 1473.73,1305.01 1476.32,1307.61 1478.92,1310.18 1481.51,1312.72 1484.1,1315.22 
  1486.7,1317.69 1489.29,1320.13 1491.88,1322.53 1494.48,1324.89 1497.07,1327.23 1499.66,1329.53 1502.25,1331.8 1504.85,1334.04 1507.44,1336.24 1510.03,1338.41 
  1512.63,1340.55 1515.22,1342.66 1517.81,1344.73 1520.41,1346.78 1523,1348.79 1525.59,1350.77 1528.18,1352.72 1530.78,1354.64 1533.37,1356.54 1535.96,1358.4 
  1538.56,1360.23 1541.15,1362.03 1543.74,1363.8 1546.34,1365.54 1548.93,1367.26 1551.52,1368.95 1554.11,1370.6 1556.71,1372.23 1559.3,1373.84 1561.89,1375.41 
  1564.49,1376.96 1567.08,1378.48 1569.67,1379.97 1572.27,1381.44 1574.86,1382.89 1577.45,1384.3 1580.04,1385.69 1582.64,1387.06 1585.23,1388.4 1587.82,1389.72 
  1590.42,1391.01 1593.01,1392.28 1595.6,1393.53 1598.19,1394.75 1600.79,1395.95 1603.38,1397.13 1605.97,1398.28 1608.57,1399.41 1611.16,1400.52 1613.75,1401.61 
  1616.35,1402.68 1618.94,1403.72 1621.53,1404.75 1624.12,1405.76 1626.72,1406.74 1629.31,1407.71 1631.9,1408.65 1634.5,1409.58 1637.09,1410.49 1639.68,1411.38 
  1642.28,1412.25 1644.87,1413.1 1647.46,1413.93 1650.05,1414.75 1652.65,1415.55 1655.24,1416.34 1657.83,1417.1 1660.43,1417.85 1663.02,1418.58 1665.61,1419.3 
  1668.21,1420 1670.8,1420.69 1673.39,1421.36 1675.98,1422.02 1678.58,1422.66 1681.17,1423.29 1683.76,1423.9 1686.36,1424.5 1688.95,1425.09 1691.54,1425.66 
  1694.14,1426.22 1696.73,1426.77 1699.32,1427.3 1701.91,1427.83 1704.51,1428.33 1707.1,1428.83 1709.69,1429.32 1712.29,1429.79 1714.88,1430.26 1717.47,1430.71 
  1720.07,1431.15 1722.66,1431.58 1725.25,1432 1727.84,1432.41 1730.44,1432.81 1733.03,1433.2 1735.62,1433.58 1738.22,1433.95 1740.81,1434.31 1743.4,1434.67 
  1746,1435.01 1748.59,1435.34 1751.18,1435.67 1753.77,1435.99 1756.37,1436.3 1758.96,1436.6 1761.55,1436.9 1764.15,1437.18 1766.74,1437.46 1769.33,1437.73 
  1771.93,1438 1774.52,1438.26 1777.11,1438.51 1779.7,1438.75 1782.3,1438.99 1784.89,1439.22 1787.48,1439.45 1790.08,1439.67 1792.67,1439.88 1795.26,1440.09 
  1797.86,1440.29 1800.45,1440.49 1803.04,1440.68 1805.63,1440.86 1808.23,1441.04 1810.82,1441.22 1813.41,1441.39 1816.01,1441.56 1818.6,1441.72 1821.19,1441.87 
  1823.79,1442.03 1826.38,1442.17 1828.97,1442.32 1831.56,1442.46 1834.16,1442.59 1836.75,1442.72 1839.34,1442.85 1841.94,1442.98 1844.53,1443.1 1847.12,1443.21 
  1849.72,1443.33 1852.31,1443.44 1854.9,1443.54 1857.49,1443.65 1860.09,1443.75 1862.68,1443.85 1865.27,1443.94 1867.87,1444.03 1870.46,1444.12 1873.05,1444.21 
  1875.65,1444.29 1878.24,1444.37 1880.83,1444.45 1883.42,1444.53 1886.02,1444.6 1888.61,1444.67 1891.2,1444.74 1893.8,1444.81 1896.39,1444.87 1898.98,1444.94 
  1901.58,1445 1904.17,1445.06 1906.76,1445.11 1909.35,1445.17 1911.95,1445.22 1914.54,1445.27 1917.13,1445.33 1919.73,1445.37 1922.32,1445.42 1924.91,1445.47 
  1927.51,1445.51 1930.1,1445.55 1932.69,1445.59 1935.28,1445.63 1937.88,1445.67 1940.47,1445.71 1943.06,1445.75 1945.66,1445.78 1948.25,1445.81 1950.84,1445.85 
  1953.44,1445.88 1956.03,1445.91 1958.62,1445.94 1961.21,1445.97 1963.81,1445.99 1966.4,1446.02 1968.99,1446.05 1971.59,1446.07 1974.18,1446.09 1976.77,1446.12 
  1979.36,1446.14 1981.96,1446.16 1984.55,1446.18 1987.14,1446.2 1989.74,1446.22 1992.33,1446.24 1994.92,1446.26 1997.52,1446.27 2000.11,1446.29 2002.7,1446.31 
  2005.29,1446.32 2007.89,1446.34 2010.48,1446.35 2013.07,1446.37 2015.67,1446.38 2018.26,1446.39 2020.85,1446.4 2023.45,1446.42 2026.04,1446.43 2028.63,1446.44 
  2031.22,1446.45 2033.82,1446.46 2036.41,1446.47 2039,1446.48 2041.6,1446.49 2044.19,1446.5 2046.78,1446.51 2049.38,1446.52 2051.97,1446.52 2054.56,1446.53 
  2057.15,1446.54 2059.75,1446.55 2062.34,1446.55 2064.93,1446.56 2067.53,1446.56 2070.12,1446.57 2072.71,1446.58 2075.31,1446.58 2077.9,1446.59 2080.49,1446.59 
  2083.08,1446.6 2085.68,1446.6 2088.27,1446.61 2090.86,1446.61 2093.46,1446.62 2096.05,1446.62 2098.64,1446.62 2101.24,1446.63 2103.83,1446.63 2106.42,1446.63 
  2109.01,1446.64 2111.61,1446.64 2114.2,1446.64 2116.79,1446.65 2119.39,1446.65 2121.98,1446.65 2124.57,1446.66 2127.17,1446.66 2129.76,1446.66 2132.35,1446.66 
  2134.94,1446.66 2137.54,1446.67 2140.13,1446.67 2142.72,1446.67 2145.32,1446.67 2147.91,1446.67 2150.5,1446.68 2153.1,1446.68 2155.69,1446.68 2158.28,1446.68 
  2160.87,1446.68 2163.47,1446.68 2166.06,1446.68 2168.65,1446.69 2171.25,1446.69 2173.84,1446.69 2176.43,1446.69 2179.03,1446.69 2181.62,1446.69 2184.21,1446.69 
  2186.8,1446.69 2189.4,1446.69 2191.99,1446.7 2194.58,1446.7 2197.18,1446.7 2199.77,1446.7 2202.36,1446.7 2204.96,1446.7 2207.55,1446.7 2210.14,1446.7 
  2212.73,1446.7 2215.33,1446.7 2217.92,1446.7 2220.51,1446.7 2223.11,1446.7 2225.7,1446.7 2228.29,1446.7 2230.89,1446.7 2233.48,1446.7 2236.07,1446.71 
  2238.66,1446.71 2241.26,1446.71 2243.85,1446.71 2246.44,1446.71 2249.04,1446.71 2251.63,1446.71 2254.22,1446.71 2256.82,1446.71 2259.41,1446.71 2262,1446.71 
  2264.59,1446.71 2267.19,1446.71 2269.78,1446.71 2272.37,1446.71 2274.97,1446.71 2277.56,1446.71 2280.15,1446.71 2282.75,1446.71 2285.34,1446.71 2287.93,1446.71 
  2290.52,1446.71 
  "/>
<polyline clip-path="url(#clip0502)" style="stroke:#cc3333; stroke-width:60; stroke-opacity:1; fill:none" points="
  216.13,1446.71 218.723,1446.71 221.316,1446.71 223.909,1446.71 226.502,1446.71 229.095,1446.71 231.688,1446.71 234.281,1446.71 236.874,1446.71 239.467,1446.71 
  242.06,1446.71 244.653,1446.71 247.246,1446.71 249.839,1446.71 252.432,1446.71 255.025,1446.71 257.618,1446.71 260.211,1446.71 262.804,1446.71 265.397,1446.71 
  267.99,1446.71 270.583,1446.71 273.176,1446.71 275.769,1446.71 278.362,1446.71 280.955,1446.71 283.548,1446.71 286.141,1446.71 288.734,1446.71 291.327,1446.71 
  293.92,1446.71 296.513,1446.71 299.106,1446.71 301.699,1446.71 304.292,1446.71 306.885,1446.71 309.478,1446.71 312.071,1446.71 314.664,1446.71 317.257,1446.71 
  319.85,1446.71 322.443,1446.71 325.036,1446.71 327.628,1446.71 330.221,1446.71 332.814,1446.71 335.407,1446.71 338,1446.71 340.593,1446.71 343.186,1446.71 
  345.779,1446.71 348.372,1446.71 350.965,1446.71 353.558,1446.71 356.151,1446.71 358.744,1446.71 361.337,1446.71 363.93,1446.71 366.523,1446.71 369.116,1446.71 
  371.709,1446.71 374.302,1446.71 376.895,1446.71 379.488,1446.71 382.081,1446.71 384.674,1446.71 387.267,1446.71 389.86,1446.71 392.453,1446.71 395.046,1446.71 
  397.639,1446.71 400.232,1446.71 402.825,1446.71 405.418,1446.71 408.011,1446.71 410.604,1446.71 413.197,1446.71 415.79,1446.71 418.383,1446.71 420.976,1446.71 
  423.569,1446.71 426.162,1446.71 428.755,1446.71 431.348,1446.71 433.941,1446.71 436.534,1446.71 439.127,1446.71 441.72,1446.71 444.313,1446.71 446.906,1446.71 
  449.499,1446.71 452.092,1446.71 454.685,1446.71 457.278,1446.71 459.871,1446.71 462.464,1446.71 465.057,1446.71 467.65,1446.71 470.243,1446.71 472.836,1446.71 
  475.429,1446.71 478.022,1446.71 480.615,1446.71 483.208,1446.71 485.801,1446.71 488.394,1446.71 490.987,1446.71 493.58,1446.71 496.173,1446.71 498.766,1446.71 
  501.359,1446.71 503.952,1446.71 506.545,1446.71 509.138,1446.71 511.731,1446.71 514.324,1446.71 516.917,1446.71 519.51,1446.71 522.103,1446.71 524.696,1446.71 
  527.289,1446.71 529.882,1446.71 532.475,1446.71 535.068,1446.71 537.661,1446.71 540.254,1446.71 542.847,1446.71 545.44,1446.71 548.033,1446.71 550.626,1446.71 
  553.219,1446.71 555.812,1446.71 558.405,1446.71 560.998,1446.71 563.591,1446.71 566.184,1446.71 568.777,1446.71 571.37,1446.71 573.963,1446.71 576.556,1446.71 
  579.149,1446.71 581.742,1446.71 584.335,1446.71 586.928,1446.71 589.521,1446.71 592.114,1446.71 594.707,1446.71 597.3,1446.71 599.893,1446.71 602.486,1446.71 
  605.079,1446.71 607.672,1446.71 610.265,1446.71 612.858,1446.71 615.451,1446.71 618.044,1446.71 620.637,1446.71 623.23,1446.71 625.823,1446.71 628.416,1446.71 
  631.009,1446.71 633.602,1446.71 636.195,1446.71 638.788,1446.71 641.381,1446.71 643.974,1446.71 646.567,1446.71 649.16,1446.71 651.753,1446.71 654.346,1446.71 
  656.939,1446.71 659.532,1446.71 662.125,1446.71 664.718,1446.71 667.311,1446.71 669.904,1446.71 672.497,1446.71 675.09,1446.71 677.683,1446.71 680.276,1446.71 
  682.869,1446.71 685.462,1446.71 688.055,1446.71 690.647,1446.71 693.24,1446.71 695.833,1446.71 698.426,1446.71 701.019,1446.71 703.612,1446.71 706.205,1446.71 
  708.798,1446.71 711.391,1446.71 713.984,1446.71 716.577,1446.71 719.17,1446.71 721.763,1446.71 724.356,1446.71 726.949,1446.71 729.542,1446.71 732.135,1446.71 
  734.728,1446.71 737.321,1446.71 739.914,1446.71 742.507,1446.71 745.1,1446.71 747.693,1446.71 750.286,1446.71 752.879,1446.7 755.472,1446.7 758.065,1446.7 
  760.658,1446.7 763.251,1446.7 765.844,1446.7 768.437,1446.7 771.03,1446.7 773.623,1446.7 776.216,1446.7 778.809,1446.7 781.402,1446.7 783.995,1446.69 
  786.588,1446.69 789.181,1446.69 791.774,1446.69 794.367,1446.69 796.96,1446.69 799.553,1446.68 802.146,1446.68 804.739,1446.68 807.332,1446.68 809.925,1446.68 
  812.518,1446.67 815.111,1446.67 817.704,1446.67 820.297,1446.67 822.89,1446.66 825.483,1446.66 828.076,1446.66 830.669,1446.65 833.262,1446.65 835.855,1446.64 
  838.448,1446.64 841.041,1446.63 843.634,1446.63 846.227,1446.62 848.82,1446.62 851.413,1446.61 854.006,1446.61 856.599,1446.6 859.192,1446.59 861.785,1446.58 
  864.378,1446.58 866.971,1446.57 869.564,1446.56 872.157,1446.55 874.75,1446.54 877.343,1446.53 879.936,1446.52 882.529,1446.51 885.122,1446.49 887.715,1446.48 
  890.308,1446.47 892.901,1446.45 895.494,1446.44 898.087,1446.42 900.68,1446.4 903.273,1446.38 905.866,1446.36 908.459,1446.34 911.052,1446.32 913.645,1446.3 
  916.238,1446.28 918.831,1446.25 921.424,1446.23 924.017,1446.2 926.61,1446.17 929.203,1446.14 931.796,1446.1 934.389,1446.07 936.982,1446.03 939.575,1446 
  942.168,1445.96 944.761,1445.91 947.354,1445.87 949.947,1445.82 952.54,1445.78 955.133,1445.72 957.726,1445.67 960.319,1445.61 962.912,1445.55 965.505,1445.49 
  968.098,1445.43 970.691,1445.36 973.284,1445.29 975.877,1445.21 978.47,1445.13 981.063,1445.05 983.656,1444.96 986.249,1444.87 988.842,1444.78 991.435,1444.68 
  994.028,1444.57 996.621,1444.46 999.214,1444.35 1001.81,1444.23 1004.4,1444.1 1006.99,1443.97 1009.59,1443.83 1012.18,1443.69 1014.77,1443.54 1017.36,1443.38 
  1019.96,1443.22 1022.55,1443.05 1025.14,1442.87 1027.74,1442.68 1030.33,1442.48 1032.92,1442.28 1035.52,1442.07 1038.11,1441.85 1040.7,1441.61 1043.29,1441.37 
  1045.89,1441.12 1048.48,1440.86 1051.07,1440.58 1053.67,1440.3 1056.26,1440 1058.85,1439.69 1061.45,1439.37 1064.04,1439.03 1066.63,1438.68 1069.22,1438.32 
  1071.82,1437.94 1074.41,1437.55 1077,1437.14 1079.6,1436.71 1082.19,1436.27 1084.78,1435.81 1087.38,1435.33 1089.97,1434.84 1092.56,1434.32 1095.15,1433.78 
  1097.75,1433.23 1100.34,1432.65 1102.93,1432.05 1105.53,1431.43 1108.12,1430.79 1110.71,1430.12 1113.31,1429.43 1115.9,1428.71 1118.49,1427.96 1121.08,1427.19 
  1123.68,1426.39 1126.27,1425.57 1128.86,1424.71 1131.46,1423.82 1134.05,1422.91 1136.64,1421.96 1139.24,1420.98 1141.83,1419.96 1144.42,1418.91 1147.01,1417.82 
  1149.61,1416.7 1152.2,1415.54 1154.79,1414.35 1157.39,1413.11 1159.98,1411.83 1162.57,1410.51 1165.17,1409.15 1167.76,1407.75 1170.35,1406.3 1172.94,1404.81 
  1175.54,1403.27 1178.13,1401.68 1180.72,1400.04 1183.32,1398.35 1185.91,1396.62 1188.5,1394.83 1191.1,1392.98 1193.69,1391.09 1196.28,1389.13 1198.87,1387.13 
  1201.47,1385.06 1204.06,1382.93 1206.65,1380.75 1209.25,1378.5 1211.84,1376.19 1214.43,1373.82 1217.03,1371.38 1219.62,1368.87 1222.21,1366.3 1224.8,1363.66 
  1227.4,1360.95 1229.99,1358.17 1232.58,1355.32 1235.18,1352.4 1237.77,1349.4 1240.36,1346.32 1242.95,1343.17 1245.55,1339.95 1248.14,1336.64 1250.73,1333.25 
  1253.33,1329.79 1255.92,1326.24 1258.51,1322.6 1261.11,1318.89 1263.7,1315.09 1266.29,1311.2 1268.88,1307.23 1271.48,1303.17 1274.07,1299.02 1276.66,1294.78 
  1279.26,1290.45 1281.85,1286.03 1284.44,1281.51 1287.04,1276.91 1289.63,1272.21 1292.22,1267.41 1294.81,1262.53 1297.41,1257.54 1300,1252.46 1302.59,1247.28 
  1305.19,1242.01 1307.78,1236.64 1310.37,1231.17 1312.97,1225.6 1315.56,1219.94 1318.15,1214.17 1320.74,1208.31 1323.34,1202.35 1325.93,1196.29 1328.52,1190.13 
  1331.12,1183.87 1333.71,1177.51 1336.3,1171.06 1338.9,1164.5 1341.49,1157.85 1344.08,1151.1 1346.67,1144.25 1349.27,1137.31 1351.86,1130.27 1354.45,1123.13 
  1357.05,1115.9 1359.64,1108.57 1362.23,1101.16 1364.83,1093.65 1367.42,1086.05 1370.01,1078.35 1372.6,1070.58 1375.2,1062.71 1377.79,1054.75 1380.38,1046.72 
  1382.98,1038.6 1385.57,1030.39 1388.16,1022.11 1390.76,1013.75 1393.35,1005.31 1395.94,996.799 1398.53,988.215 1401.13,979.56 1403.72,970.838 1406.31,962.049 
  1408.91,953.197 1411.5,944.283 1414.09,935.311 1416.69,926.283 1419.28,917.201 1421.87,908.068 1424.46,898.888 1427.06,889.662 1429.65,880.395 1432.24,871.088 
  1434.84,861.746 1437.43,852.37 1440.02,842.965 1442.62,833.534 1445.21,824.081 1447.8,814.607 1450.39,805.119 1452.99,795.617 1455.58,786.108 1458.17,776.593 
  1460.77,767.078 1463.36,757.565 1465.95,748.058 1468.55,738.563 1471.14,729.081 1473.73,719.619 1476.32,710.178 1478.92,700.765 1481.51,691.382 1484.1,682.034 
  1486.7,672.725 1489.29,663.459 1491.88,654.242 1494.48,645.076 1497.07,635.966 1499.66,626.916 1502.25,617.932 1504.85,609.016 1507.44,600.174 1510.03,591.409 
  1512.63,582.727 1515.22,574.131 1517.81,565.626 1520.41,557.216 1523,548.905 1525.59,540.697 1528.18,532.598 1530.78,524.61 1533.37,516.739 1535.96,508.988 
  1538.56,501.362 1541.15,493.864 1543.74,486.499 1546.34,479.27 1548.93,472.182 1551.52,465.238 1554.11,458.442 1556.71,451.799 1559.3,445.311 1561.89,438.982 
  1564.49,432.816 1567.08,426.816 1569.67,420.986 1572.27,415.329 1574.86,409.848 1577.45,404.547 1580.04,399.428 1582.64,394.494 1585.23,389.748 1587.82,385.194 
  1590.42,380.832 1593.01,376.667 1595.6,372.701 1598.19,368.935 1600.79,365.373 1603.38,362.015 1605.97,358.865 1608.57,355.924 1611.16,353.194 1613.75,350.676 
  1616.35,348.371 1618.94,346.283 1621.53,344.41 1624.12,342.756 1626.72,341.32 1629.31,340.103 1631.9,339.107 1634.5,338.331 1637.09,337.777 1639.68,337.444 
  1642.28,337.333 1644.87,337.444 1647.46,337.777 1650.05,338.331 1652.65,339.107 1655.24,340.103 1657.83,341.32 1660.43,342.756 1663.02,344.41 1665.61,346.283 
  1668.21,348.371 1670.8,350.676 1673.39,353.194 1675.98,355.924 1678.58,358.865 1681.17,362.015 1683.76,365.373 1686.36,368.935 1688.95,372.701 1691.54,376.667 
  1694.14,380.832 1696.73,385.194 1699.32,389.748 1701.91,394.494 1704.51,399.428 1707.1,404.547 1709.69,409.848 1712.29,415.329 1714.88,420.986 1717.47,426.816 
  1720.07,432.816 1722.66,438.982 1725.25,445.311 1727.84,451.799 1730.44,458.442 1733.03,465.238 1735.62,472.182 1738.22,479.27 1740.81,486.499 1743.4,493.864 
  1746,501.362 1748.59,508.988 1751.18,516.739 1753.77,524.61 1756.37,532.598 1758.96,540.697 1761.55,548.905 1764.15,557.216 1766.74,565.626 1769.33,574.131 
  1771.93,582.727 1774.52,591.409 1777.11,600.174 1779.7,609.016 1782.3,617.932 1784.89,626.916 1787.48,635.966 1790.08,645.076 1792.67,654.242 1795.26,663.459 
  1797.86,672.725 1800.45,682.034 1803.04,691.382 1805.63,700.765 1808.23,710.178 1810.82,719.619 1813.41,729.081 1816.01,738.563 1818.6,748.058 1821.19,757.565 
  1823.79,767.078 1826.38,776.593 1828.97,786.108 1831.56,795.617 1834.16,805.119 1836.75,814.607 1839.34,824.081 1841.94,833.534 1844.53,842.965 1847.12,852.37 
  1849.72,861.746 1852.31,871.088 1854.9,880.395 1857.49,889.662 1860.09,898.888 1862.68,908.068 1865.27,917.201 1867.87,926.283 1870.46,935.311 1873.05,944.283 
  1875.65,953.197 1878.24,962.049 1880.83,970.838 1883.42,979.56 1886.02,988.215 1888.61,996.799 1891.2,1005.31 1893.8,1013.75 1896.39,1022.11 1898.98,1030.39 
  1901.58,1038.6 1904.17,1046.72 1906.76,1054.75 1909.35,1062.71 1911.95,1070.58 1914.54,1078.35 1917.13,1086.05 1919.73,1093.65 1922.32,1101.16 1924.91,1108.57 
  1927.51,1115.9 1930.1,1123.13 1932.69,1130.27 1935.28,1137.31 1937.88,1144.25 1940.47,1151.1 1943.06,1157.85 1945.66,1164.5 1948.25,1171.06 1950.84,1177.51 
  1953.44,1183.87 1956.03,1190.13 1958.62,1196.29 1961.21,1202.35 1963.81,1208.31 1966.4,1214.17 1968.99,1219.94 1971.59,1225.6 1974.18,1231.17 1976.77,1236.64 
  1979.36,1242.01 1981.96,1247.28 1984.55,1252.46 1987.14,1257.54 1989.74,1262.53 1992.33,1267.41 1994.92,1272.21 1997.52,1276.91 2000.11,1281.51 2002.7,1286.03 
  2005.29,1290.45 2007.89,1294.78 2010.48,1299.02 2013.07,1303.17 2015.67,1307.23 2018.26,1311.2 2020.85,1315.09 2023.45,1318.89 2026.04,1322.6 2028.63,1326.24 
  2031.22,1329.79 2033.82,1333.25 2036.41,1336.64 2039,1339.95 2041.6,1343.17 2044.19,1346.32 2046.78,1349.4 2049.38,1352.4 2051.97,1355.32 2054.56,1358.17 
  2057.15,1360.95 2059.75,1363.66 2062.34,1366.3 2064.93,1368.87 2067.53,1371.38 2070.12,1373.82 2072.71,1376.19 2075.31,1378.5 2077.9,1380.75 2080.49,1382.93 
  2083.08,1385.06 2085.68,1387.13 2088.27,1389.13 2090.86,1391.09 2093.46,1392.98 2096.05,1394.83 2098.64,1396.62 2101.24,1398.35 2103.83,1400.04 2106.42,1401.68 
  2109.01,1403.27 2111.61,1404.81 2114.2,1406.3 2116.79,1407.75 2119.39,1409.15 2121.98,1410.51 2124.57,1411.83 2127.17,1413.11 2129.76,1414.35 2132.35,1415.54 
  2134.94,1416.7 2137.54,1417.82 2140.13,1418.91 2142.72,1419.96 2145.32,1420.98 2147.91,1421.96 2150.5,1422.91 2153.1,1423.82 2155.69,1424.71 2158.28,1425.57 
  2160.87,1426.39 2163.47,1427.19 2166.06,1427.96 2168.65,1428.71 2171.25,1429.43 2173.84,1430.12 2176.43,1430.79 2179.03,1431.43 2181.62,1432.05 2184.21,1432.65 
  2186.8,1433.23 2189.4,1433.78 2191.99,1434.32 2194.58,1434.84 2197.18,1435.33 2199.77,1435.81 2202.36,1436.27 2204.96,1436.71 2207.55,1437.14 2210.14,1437.55 
  2212.73,1437.94 2215.33,1438.32 2217.92,1438.68 2220.51,1439.03 2223.11,1439.37 2225.7,1439.69 2228.29,1440 2230.89,1440.3 2233.48,1440.58 2236.07,1440.86 
  2238.66,1441.12 2241.26,1441.37 2243.85,1441.61 2246.44,1441.85 2249.04,1442.07 2251.63,1442.28 2254.22,1442.48 2256.82,1442.68 2259.41,1442.87 2262,1443.05 
  2264.59,1443.22 2267.19,1443.38 2269.78,1443.54 2272.37,1443.69 2274.97,1443.83 2277.56,1443.97 2280.15,1444.1 2282.75,1444.23 2285.34,1444.35 2287.93,1444.46 
  2290.52,1444.57 
  "/>
<polyline clip-path="url(#clip0502)" style="stroke:#218921; stroke-width:60; stroke-opacity:1; fill:none" points="
  216.13,1446.71 218.723,1446.71 221.316,1446.71 223.909,1446.71 226.502,1446.71 229.095,1446.71 231.688,1446.71 234.281,1446.71 236.874,1446.71 239.467,1446.71 
  242.06,1446.71 244.653,1446.71 247.246,1446.71 249.839,1446.71 252.432,1446.71 255.025,1446.71 257.618,1446.71 260.211,1446.71 262.804,1446.71 265.397,1446.71 
  267.99,1446.71 270.583,1446.71 273.176,1446.71 275.769,1446.71 278.362,1446.71 280.955,1446.71 283.548,1446.71 286.141,1446.71 288.734,1446.71 291.327,1446.71 
  293.92,1446.71 296.513,1446.71 299.106,1446.71 301.699,1446.71 304.292,1446.71 306.885,1446.71 309.478,1446.71 312.071,1446.71 314.664,1446.71 317.257,1446.71 
  319.85,1446.71 322.443,1446.71 325.036,1446.71 327.628,1446.71 330.221,1446.71 332.814,1446.71 335.407,1446.71 338,1446.71 340.593,1446.71 343.186,1446.71 
  345.779,1446.71 348.372,1446.71 350.965,1446.71 353.558,1446.71 356.151,1446.71 358.744,1446.71 361.337,1446.71 363.93,1446.71 366.523,1446.71 369.116,1446.71 
  371.709,1446.71 374.302,1446.71 376.895,1446.71 379.488,1446.71 382.081,1446.71 384.674,1446.71 387.267,1446.71 389.86,1446.71 392.453,1446.71 395.046,1446.71 
  397.639,1446.71 400.232,1446.71 402.825,1446.71 405.418,1446.71 408.011,1446.71 410.604,1446.71 413.197,1446.71 415.79,1446.71 418.383,1446.71 420.976,1446.71 
  423.569,1446.71 426.162,1446.71 428.755,1446.71 431.348,1446.71 433.941,1446.71 436.534,1446.71 439.127,1446.71 441.72,1446.71 444.313,1446.71 446.906,1446.71 
  449.499,1446.71 452.092,1446.71 454.685,1446.71 457.278,1446.71 459.871,1446.71 462.464,1446.71 465.057,1446.71 467.65,1446.71 470.243,1446.71 472.836,1446.71 
  475.429,1446.71 478.022,1446.71 480.615,1446.71 483.208,1446.71 485.801,1446.71 488.394,1446.71 490.987,1446.71 493.58,1446.71 496.173,1446.71 498.766,1446.71 
  501.359,1446.71 503.952,1446.71 506.545,1446.71 509.138,1446.71 511.731,1446.71 514.324,1446.71 516.917,1446.71 519.51,1446.71 522.103,1446.71 524.696,1446.71 
  527.289,1446.71 529.882,1446.71 532.475,1446.71 535.068,1446.71 537.661,1446.71 540.254,1446.71 542.847,1446.71 545.44,1446.71 548.033,1446.71 550.626,1446.71 
  553.219,1446.71 555.812,1446.71 558.405,1446.71 560.998,1446.71 563.591,1446.71 566.184,1446.71 568.777,1446.71 571.37,1446.71 573.963,1446.71 576.556,1446.71 
  579.149,1446.71 581.742,1446.71 584.335,1446.71 586.928,1446.71 589.521,1446.71 592.114,1446.71 594.707,1446.71 597.3,1446.71 599.893,1446.71 602.486,1446.71 
  605.079,1446.71 607.672,1446.71 610.265,1446.71 612.858,1446.71 615.451,1446.71 618.044,1446.71 620.637,1446.71 623.23,1446.71 625.823,1446.71 628.416,1446.71 
  631.009,1446.71 633.602,1446.71 636.195,1446.71 638.788,1446.71 641.381,1446.71 643.974,1446.71 646.567,1446.71 649.16,1446.71 651.753,1446.71 654.346,1446.71 
  656.939,1446.71 659.532,1446.71 662.125,1446.71 664.718,1446.71 667.311,1446.71 669.904,1446.71 672.497,1446.71 675.09,1446.71 677.683,1446.71 680.276,1446.71 
  682.869,1446.71 685.462,1446.71 688.055,1446.71 690.647,1446.71 693.24,1446.71 695.833,1446.71 698.426,1446.71 701.019,1446.71 703.612,1446.71 706.205,1446.71 
  708.798,1446.71 711.391,1446.71 713.984,1446.71 716.577,1446.71 719.17,1446.71 721.763,1446.71 724.356,1446.71 726.949,1446.71 729.542,1446.71 732.135,1446.71 
  734.728,1446.71 737.321,1446.71 739.914,1446.71 742.507,1446.71 745.1,1446.71 747.693,1446.71 750.286,1446.71 752.879,1446.71 755.472,1446.71 758.065,1446.71 
  760.658,1446.71 763.251,1446.71 765.844,1446.71 768.437,1446.71 771.03,1446.71 773.623,1446.71 776.216,1446.71 778.809,1446.71 781.402,1446.7 783.995,1446.7 
  786.588,1446.7 789.181,1446.7 791.774,1446.7 794.367,1446.7 796.96,1446.7 799.553,1446.7 802.146,1446.7 804.739,1446.69 807.332,1446.69 809.925,1446.69 
  812.518,1446.69 815.111,1446.69 817.704,1446.69 820.297,1446.68 822.89,1446.68 825.483,1446.68 828.076,1446.67 830.669,1446.67 833.262,1446.67 835.855,1446.66 
  838.448,1446.66 841.041,1446.66 843.634,1446.65 846.227,1446.65 848.82,1446.64 851.413,1446.63 854.006,1446.63 856.599,1446.62 859.192,1446.61 861.785,1446.61 
  864.378,1446.6 866.971,1446.59 869.564,1446.58 872.157,1446.57 874.75,1446.56 877.343,1446.55 879.936,1446.53 882.529,1446.52 885.122,1446.51 887.715,1446.49 
  890.308,1446.47 892.901,1446.46 895.494,1446.44 898.087,1446.42 900.68,1446.39 903.273,1446.37 905.866,1446.35 908.459,1446.32 911.052,1446.29 913.645,1446.26 
  916.238,1446.23 918.831,1446.19 921.424,1446.16 924.017,1446.12 926.61,1446.07 929.203,1446.03 931.796,1445.98 934.389,1445.93 936.982,1445.88 939.575,1445.82 
  942.168,1445.76 944.761,1445.69 947.354,1445.62 949.947,1445.55 952.54,1445.47 955.133,1445.39 957.726,1445.3 960.319,1445.21 962.912,1445.11 965.505,1445 
  968.098,1444.89 970.691,1444.77 973.284,1444.65 975.877,1444.52 978.47,1444.38 981.063,1444.23 983.656,1444.07 986.249,1443.9 988.842,1443.73 991.435,1443.54 
  994.028,1443.35 996.621,1443.14 999.214,1442.92 1001.81,1442.69 1004.4,1442.44 1006.99,1442.18 1009.59,1441.91 1012.18,1441.63 1014.77,1441.32 1017.36,1441 
  1019.96,1440.67 1022.55,1440.31 1025.14,1439.94 1027.74,1439.55 1030.33,1439.14 1032.92,1438.7 1035.52,1438.25 1038.11,1437.77 1040.7,1437.27 1043.29,1436.74 
  1045.89,1436.18 1048.48,1435.6 1051.07,1434.99 1053.67,1434.35 1056.26,1433.68 1058.85,1432.97 1061.45,1432.23 1064.04,1431.46 1066.63,1430.65 1069.22,1429.8 
  1071.82,1428.91 1074.41,1427.98 1077,1427.01 1079.6,1426 1082.19,1424.94 1084.78,1423.83 1087.38,1422.67 1089.97,1421.46 1092.56,1420.2 1095.15,1418.88 
  1097.75,1417.51 1100.34,1416.08 1102.93,1414.59 1105.53,1413.03 1108.12,1411.41 1110.71,1409.73 1113.31,1407.97 1115.9,1406.15 1118.49,1404.25 1121.08,1402.27 
  1123.68,1400.22 1126.27,1398.09 1128.86,1395.87 1131.46,1393.57 1134.05,1391.19 1136.64,1388.71 1139.24,1386.14 1141.83,1383.47 1144.42,1380.71 1147.01,1377.85 
  1149.61,1374.88 1152.2,1371.81 1154.79,1368.64 1157.39,1365.35 1159.98,1361.95 1162.57,1358.43 1165.17,1354.8 1167.76,1351.04 1170.35,1347.16 1172.94,1343.15 
  1175.54,1339.02 1178.13,1334.75 1180.72,1330.35 1183.32,1325.82 1185.91,1321.14 1188.5,1316.32 1191.1,1311.36 1193.69,1306.25 1196.28,1300.99 1198.87,1295.58 
  1201.47,1290.02 1204.06,1284.3 1206.65,1278.42 1209.25,1272.39 1211.84,1266.18 1214.43,1259.82 1217.03,1253.29 1219.62,1246.59 1222.21,1239.72 1224.8,1232.68 
  1227.4,1225.46 1229.99,1218.08 1232.58,1210.51 1235.18,1202.77 1237.77,1194.85 1240.36,1186.75 1242.95,1178.47 1245.55,1170.01 1248.14,1161.37 1250.73,1152.55 
  1253.33,1143.54 1255.92,1134.36 1258.51,1124.99 1261.11,1115.44 1263.7,1105.71 1266.29,1095.8 1268.88,1085.71 1271.48,1075.44 1274.07,1064.99 1276.66,1054.37 
  1279.26,1043.57 1281.85,1032.6 1284.44,1021.46 1287.04,1010.15 1289.63,998.67 1292.22,987.029 1294.81,975.227 1297.41,963.267 1300,951.153 1302.59,938.887 
  1305.19,926.474 1307.78,913.917 1310.37,901.221 1312.97,888.389 1315.56,875.428 1318.15,862.34 1320.74,849.133 1323.34,835.81 1325.93,822.377 1328.52,808.84 
  1331.12,795.206 1333.71,781.479 1336.3,767.667 1338.9,753.776 1341.49,739.813 1344.08,725.785 1346.67,711.699 1349.27,697.563 1351.86,683.384 1354.45,669.17 
  1357.05,654.929 1359.64,640.668 1362.23,626.397 1364.83,612.124 1367.42,597.857 1370.01,583.606 1372.6,569.378 1375.2,555.183 1377.79,541.03 1380.38,526.929 
  1382.98,512.888 1385.57,498.917 1388.16,485.026 1390.76,471.224 1393.35,457.52 1395.94,443.925 1398.53,430.448 1401.13,417.099 1403.72,403.887 1406.31,390.823 
  1408.91,377.916 1411.5,365.175 1414.09,352.611 1416.69,340.233 1419.28,328.05 1421.87,316.073 1424.46,304.31 1427.06,292.771 1429.65,281.465 1432.24,270.401 
  1434.84,259.589 1437.43,249.036 1440.02,238.752 1442.62,228.745 1445.21,219.023 1447.8,209.596 1450.39,200.469 1452.99,191.652 1455.58,183.152 1458.17,174.976 
  1460.77,167.13 1463.36,159.623 1465.95,152.46 1468.55,145.647 1471.14,139.191 1473.73,133.097 1476.32,127.37 1478.92,122.016 1481.51,117.039 1484.1,112.443 
  1486.7,108.234 1489.29,104.414 1491.88,100.987 1494.48,97.9552 1497.07,95.3226 1499.66,93.091 1502.25,91.2623 1504.85,89.8384 1507.44,88.8203 1510.03,88.2091 
  1512.63,88.0053 1515.22,88.2091 1517.81,88.8203 1520.41,89.8384 1523,91.2623 1525.59,93.091 1528.18,95.3226 1530.78,97.9552 1533.37,100.987 1535.96,104.414 
  1538.56,108.234 1541.15,112.443 1543.74,117.039 1546.34,122.016 1548.93,127.37 1551.52,133.097 1554.11,139.191 1556.71,145.647 1559.3,152.46 1561.89,159.623 
  1564.49,167.13 1567.08,174.976 1569.67,183.152 1572.27,191.652 1574.86,200.469 1577.45,209.596 1580.04,219.023 1582.64,228.745 1585.23,238.752 1587.82,249.036 
  1590.42,259.589 1593.01,270.401 1595.6,281.465 1598.19,292.771 1600.79,304.31 1603.38,316.073 1605.97,328.05 1608.57,340.233 1611.16,352.611 1613.75,365.175 
  1616.35,377.916 1618.94,390.823 1621.53,403.887 1624.12,417.099 1626.72,430.448 1629.31,443.925 1631.9,457.52 1634.5,471.224 1637.09,485.026 1639.68,498.917 
  1642.28,512.888 1644.87,526.929 1647.46,541.03 1650.05,555.183 1652.65,569.378 1655.24,583.606 1657.83,597.857 1660.43,612.124 1663.02,626.397 1665.61,640.668 
  1668.21,654.929 1670.8,669.17 1673.39,683.384 1675.98,697.563 1678.58,711.699 1681.17,725.785 1683.76,739.813 1686.36,753.776 1688.95,767.667 1691.54,781.479 
  1694.14,795.206 1696.73,808.84 1699.32,822.377 1701.91,835.81 1704.51,849.133 1707.1,862.34 1709.69,875.428 1712.29,888.389 1714.88,901.221 1717.47,913.917 
  1720.07,926.474 1722.66,938.887 1725.25,951.153 1727.84,963.267 1730.44,975.227 1733.03,987.029 1735.62,998.67 1738.22,1010.15 1740.81,1021.46 1743.4,1032.6 
  1746,1043.57 1748.59,1054.37 1751.18,1064.99 1753.77,1075.44 1756.37,1085.71 1758.96,1095.8 1761.55,1105.71 1764.15,1115.44 1766.74,1124.99 1769.33,1134.36 
  1771.93,1143.54 1774.52,1152.55 1777.11,1161.37 1779.7,1170.01 1782.3,1178.47 1784.89,1186.75 1787.48,1194.85 1790.08,1202.77 1792.67,1210.51 1795.26,1218.08 
  1797.86,1225.46 1800.45,1232.68 1803.04,1239.72 1805.63,1246.59 1808.23,1253.29 1810.82,1259.82 1813.41,1266.18 1816.01,1272.39 1818.6,1278.42 1821.19,1284.3 
  1823.79,1290.02 1826.38,1295.58 1828.97,1300.99 1831.56,1306.25 1834.16,1311.36 1836.75,1316.32 1839.34,1321.14 1841.94,1325.82 1844.53,1330.35 1847.12,1334.75 
  1849.72,1339.02 1852.31,1343.15 1854.9,1347.16 1857.49,1351.04 1860.09,1354.8 1862.68,1358.43 1865.27,1361.95 1867.87,1365.35 1870.46,1368.64 1873.05,1371.81 
  1875.65,1374.88 1878.24,1377.85 1880.83,1380.71 1883.42,1383.47 1886.02,1386.14 1888.61,1388.71 1891.2,1391.19 1893.8,1393.57 1896.39,1395.87 1898.98,1398.09 
  1901.58,1400.22 1904.17,1402.27 1906.76,1404.25 1909.35,1406.15 1911.95,1407.97 1914.54,1409.73 1917.13,1411.41 1919.73,1413.03 1922.32,1414.59 1924.91,1416.08 
  1927.51,1417.51 1930.1,1418.88 1932.69,1420.2 1935.28,1421.46 1937.88,1422.67 1940.47,1423.83 1943.06,1424.94 1945.66,1426 1948.25,1427.01 1950.84,1427.98 
  1953.44,1428.91 1956.03,1429.8 1958.62,1430.65 1961.21,1431.46 1963.81,1432.23 1966.4,1432.97 1968.99,1433.68 1971.59,1434.35 1974.18,1434.99 1976.77,1435.6 
  1979.36,1436.18 1981.96,1436.74 1984.55,1437.27 1987.14,1437.77 1989.74,1438.25 1992.33,1438.7 1994.92,1439.14 1997.52,1439.55 2000.11,1439.94 2002.7,1440.31 
  2005.29,1440.67 2007.89,1441 2010.48,1441.32 2013.07,1441.63 2015.67,1441.91 2018.26,1442.18 2020.85,1442.44 2023.45,1442.69 2026.04,1442.92 2028.63,1443.14 
  2031.22,1443.35 2033.82,1443.54 2036.41,1443.73 2039,1443.9 2041.6,1444.07 2044.19,1444.23 2046.78,1444.38 2049.38,1444.52 2051.97,1444.65 2054.56,1444.77 
  2057.15,1444.89 2059.75,1445 2062.34,1445.11 2064.93,1445.21 2067.53,1445.3 2070.12,1445.39 2072.71,1445.47 2075.31,1445.55 2077.9,1445.62 2080.49,1445.69 
  2083.08,1445.76 2085.68,1445.82 2088.27,1445.88 2090.86,1445.93 2093.46,1445.98 2096.05,1446.03 2098.64,1446.07 2101.24,1446.12 2103.83,1446.16 2106.42,1446.19 
  2109.01,1446.23 2111.61,1446.26 2114.2,1446.29 2116.79,1446.32 2119.39,1446.35 2121.98,1446.37 2124.57,1446.39 2127.17,1446.42 2129.76,1446.44 2132.35,1446.46 
  2134.94,1446.47 2137.54,1446.49 2140.13,1446.51 2142.72,1446.52 2145.32,1446.53 2147.91,1446.55 2150.5,1446.56 2153.1,1446.57 2155.69,1446.58 2158.28,1446.59 
  2160.87,1446.6 2163.47,1446.61 2166.06,1446.61 2168.65,1446.62 2171.25,1446.63 2173.84,1446.63 2176.43,1446.64 2179.03,1446.65 2181.62,1446.65 2184.21,1446.66 
  2186.8,1446.66 2189.4,1446.66 2191.99,1446.67 2194.58,1446.67 2197.18,1446.67 2199.77,1446.68 2202.36,1446.68 2204.96,1446.68 2207.55,1446.69 2210.14,1446.69 
  2212.73,1446.69 2215.33,1446.69 2217.92,1446.69 2220.51,1446.69 2223.11,1446.7 2225.7,1446.7 2228.29,1446.7 2230.89,1446.7 2233.48,1446.7 2236.07,1446.7 
  2238.66,1446.7 2241.26,1446.7 2243.85,1446.7 2246.44,1446.71 2249.04,1446.71 2251.63,1446.71 2254.22,1446.71 2256.82,1446.71 2259.41,1446.71 2262,1446.71 
  2264.59,1446.71 2267.19,1446.71 2269.78,1446.71 2272.37,1446.71 2274.97,1446.71 2277.56,1446.71 2280.15,1446.71 2282.75,1446.71 2285.34,1446.71 2287.93,1446.71 
  2290.52,1446.71 
  "/>
</svg>
