<?xml version="1.0" encoding="utf-8"?>
<svg xmlns="http://www.w3.org/2000/svg" xmlns:xlink="http://www.w3.org/1999/xlink" width="450" height="300" viewBox="0 0 1800 1200">
<defs>
  <clipPath id="clip0200">
    <rect x="0" y="0" width="1800" height="1200"/>
  </clipPath>
</defs>
<path clip-path="url(#clip0200)" d="
M0 1200 L1800 1200 L1800 0 L0 0  Z
  " fill="#ffffff" fill-rule="evenodd" fill-opacity="1"/>
<defs>
  <clipPath id="clip0201">
    <rect x="360" y="0" width="1261" height="1200"/>
  </clipPath>
</defs>
<path clip-path="url(#clip0200)" d="
M147.898 1091.47 L1752.76 1091.47 L1752.76 47.2441 L147.898 47.2441  Z
  " fill="#ffffff" fill-rule="evenodd" fill-opacity="1"/>
<defs>
  <clipPath id="clip0202">
    <rect x="147" y="47" width="1606" height="1045"/>
  </clipPath>
</defs>
<polyline clip-path="url(#clip0202)" style="stroke:#b352cc; stroke-width:60; stroke-opacity:1; fill:none" points="
  193.318,1055.6 195.211,1055.41 197.104,1055.21 198.996,1055.01 200.889,1054.8 202.781,1054.59 204.674,1054.37 206.566,1054.15 208.459,1053.91 210.351,1053.68 
  212.244,1053.43 214.136,1053.19 216.029,1052.93 217.921,1052.67 219.814,1052.4 221.706,1052.12 223.599,1051.84 225.491,1051.55 227.384,1051.25 229.276,1050.95 
  231.169,1050.64 233.061,1050.32 234.954,1049.99 236.846,1049.65 238.739,1049.31 240.632,1048.96 242.524,1048.6 244.417,1048.23 246.309,1047.85 248.202,1047.46 
  250.094,1047.06 251.987,1046.66 253.879,1046.24 255.772,1045.82 257.664,1045.38 259.557,1044.94 261.449,1044.48 263.342,1044.02 265.234,1043.54 267.127,1043.05 
  269.019,1042.56 270.912,1042.05 272.804,1041.53 274.697,1040.99 276.589,1040.45 278.482,1039.9 280.374,1039.33 282.267,1038.75 284.159,1038.15 286.052,1037.55 
  287.945,1036.93 289.837,1036.3 291.73,1035.66 293.622,1035 295.515,1034.33 297.407,1033.64 299.3,1032.94 301.192,1032.23 303.085,1031.5 304.977,1030.75 
  306.87,1029.99 308.762,1029.22 310.655,1028.43 312.547,1027.63 314.44,1026.8 316.332,1025.97 318.225,1025.12 320.117,1024.25 322.01,1023.36 323.902,1022.46 
  325.795,1021.54 327.687,1020.6 329.58,1019.64 331.473,1018.67 333.365,1017.68 335.258,1016.67 337.15,1015.64 339.043,1014.6 340.935,1013.53 342.828,1012.45 
  344.72,1011.35 346.613,1010.22 348.505,1009.08 350.398,1007.92 352.29,1006.74 354.183,1005.54 356.075,1004.31 357.968,1003.07 359.86,1001.81 361.753,1000.52 
  363.645,999.215 365.538,997.887 367.43,996.538 369.323,995.167 371.215,993.774 373.108,992.36 375.001,990.922 376.893,989.463 378.786,987.981 380.678,986.476 
  382.571,984.948 384.463,983.397 386.356,981.822 388.248,980.225 390.141,978.603 392.033,976.958 393.926,975.29 395.818,973.597 397.711,971.88 399.603,970.14 
  401.496,968.374 403.388,966.585 405.281,964.771 407.173,962.932 409.066,961.068 410.958,959.18 412.851,957.267 414.743,955.329 416.636,953.366 418.528,951.377 
  420.421,949.364 422.314,947.325 424.206,945.261 426.099,943.172 427.991,941.058 429.884,938.918 431.776,936.753 433.669,934.562 435.561,932.346 437.454,930.105 
  439.346,927.838 441.239,925.546 443.131,923.228 445.024,920.886 446.916,918.518 448.809,916.125 450.701,913.707 452.594,911.263 454.486,908.795 456.379,906.302 
  458.271,903.784 460.164,901.242 462.056,898.675 463.949,896.083 465.842,893.467 467.734,890.827 469.627,888.164 471.519,885.476 473.412,882.764 475.304,880.029 
  477.197,877.271 479.089,874.49 480.982,871.686 482.874,868.859 484.767,866.01 486.659,863.139 488.552,860.245 490.444,857.33 492.337,854.394 494.229,851.437 
  496.122,848.459 498.014,845.46 499.907,842.441 501.799,839.402 503.692,836.344 505.584,833.267 507.477,830.171 509.37,827.056 511.262,823.923 513.155,820.773 
  515.047,817.605 516.94,814.421 518.832,811.22 520.725,808.003 522.617,804.771 524.51,801.523 526.402,798.261 528.295,794.985 530.187,791.695 532.08,788.391 
  533.972,785.075 535.865,781.747 537.757,778.407 539.65,775.056 541.542,771.695 543.435,768.323 545.327,764.942 547.22,761.552 549.112,758.154 551.005,754.748 
  552.898,751.335 554.79,747.915 556.683,744.49 558.575,741.059 560.468,737.624 562.36,734.184 564.253,730.742 566.145,727.296 568.038,723.848 569.93,720.4 
  571.823,716.95 573.715,713.5 575.608,710.051 577.5,706.604 579.393,703.159 581.285,699.716 583.178,696.277 585.07,692.842 586.963,689.412 588.855,685.988 
  590.748,682.571 592.64,679.16 594.533,675.758 596.425,672.364 598.318,668.98 600.211,665.606 602.103,662.242 603.996,658.891 605.888,655.552 607.781,652.227 
  609.673,648.916 611.566,645.619 613.458,642.338 615.351,639.074 617.243,635.827 619.136,632.598 621.028,629.387 622.921,626.196 624.813,623.026 626.706,619.877 
  628.598,616.749 630.491,613.644 632.383,610.563 634.276,607.506 636.168,604.474 638.061,601.468 639.953,598.489 641.846,595.536 643.739,592.612 645.631,589.717 
  647.524,586.852 649.416,584.017 651.309,581.213 653.201,578.441 655.094,575.701 656.986,572.995 658.879,570.323 660.771,567.686 662.664,565.085 664.556,562.519 
  666.449,559.991 668.341,557.5 670.234,555.048 672.126,552.635 674.019,550.261 675.911,547.928 677.804,545.635 679.696,543.384 681.589,541.176 683.481,539.01 
  685.374,536.888 687.267,534.81 689.159,532.777 691.052,530.789 692.944,528.847 694.837,526.951 696.729,525.102 698.622,523.301 700.514,521.548 702.407,519.843 
  704.299,518.187 706.192,516.58 708.084,515.024 709.977,513.518 711.869,512.063 713.762,510.659 715.654,509.307 717.547,508.006 719.439,506.759 721.332,505.564 
  723.224,504.422 725.117,503.334 727.009,502.3 728.902,501.319 730.794,500.394 732.687,499.523 734.58,498.706 736.472,497.946 738.365,497.24 740.257,496.59 
  742.15,495.997 744.042,495.459 745.935,494.977 747.827,494.552 749.72,494.183 751.612,493.87 753.505,493.615 755.397,493.416 757.29,493.274 759.182,493.188 
  761.075,493.16 762.967,493.188 764.86,493.274 766.752,493.416 768.645,493.615 770.537,493.87 772.43,494.183 774.322,494.552 776.215,494.977 778.108,495.459 
  780,495.997 781.893,496.59 783.785,497.24 785.678,497.946 787.57,498.706 789.463,499.523 791.355,500.394 793.248,501.319 795.14,502.3 797.033,503.334 
  798.925,504.422 800.818,505.564 802.71,506.759 804.603,508.006 806.495,509.307 808.388,510.659 810.28,512.063 812.173,513.518 814.065,515.024 815.958,516.58 
  817.85,518.187 819.743,519.843 821.636,521.548 823.528,523.301 825.421,525.102 827.313,526.951 829.206,528.847 831.098,530.789 832.991,532.777 834.883,534.81 
  836.776,536.888 838.668,539.01 840.561,541.176 842.453,543.384 844.346,545.635 846.238,547.928 848.131,550.261 850.023,552.635 851.916,555.048 853.808,557.5 
  855.701,559.991 857.593,562.519 859.486,565.085 861.378,567.686 863.271,570.323 865.163,572.995 867.056,575.701 868.949,578.441 870.841,581.213 872.734,584.017 
  874.626,586.852 876.519,589.717 878.411,592.612 880.304,595.536 882.196,598.489 884.089,601.468 885.981,604.474 887.874,607.506 889.766,610.563 891.659,613.644 
  893.551,616.749 895.444,619.877 897.336,623.026 899.229,626.196 901.121,629.387 903.014,632.598 904.906,635.827 906.799,639.074 908.691,642.338 910.584,645.619 
  912.477,648.916 914.369,652.227 916.262,655.552 918.154,658.891 920.047,662.242 921.939,665.606 923.832,668.98 925.724,672.364 927.617,675.758 929.509,679.16 
  931.402,682.571 933.294,685.988 935.187,689.412 937.079,692.842 938.972,696.277 940.864,699.716 942.757,703.159 944.649,706.604 946.542,710.051 948.434,713.5 
  950.327,716.95 952.219,720.4 954.112,723.848 956.005,727.296 957.897,730.742 959.79,734.184 961.682,737.624 963.575,741.059 965.467,744.49 967.36,747.915 
  969.252,751.335 971.145,754.748 973.037,758.154 974.93,761.552 976.822,764.942 978.715,768.323 980.607,771.695 982.5,775.056 984.392,778.407 986.285,781.747 
  988.177,785.075 990.07,788.391 991.962,791.695 993.855,794.985 995.747,798.261 997.64,801.523 999.532,804.771 1001.43,808.003 1003.32,811.22 1005.21,814.421 
  1007.1,817.605 1009,820.773 1010.89,823.923 1012.78,827.056 1014.67,830.171 1016.57,833.267 1018.46,836.344 1020.35,839.402 1022.24,842.441 1024.14,845.46 
  1026.03,848.459 1027.92,851.437 1029.81,854.394 1031.71,857.33 1033.6,860.245 1035.49,863.139 1037.38,866.01 1039.28,868.859 1041.17,871.686 1043.06,874.49 
  1044.95,877.271 1046.85,880.029 1048.74,882.764 1050.63,885.476 1052.52,888.164 1054.42,890.827 1056.31,893.467 1058.2,896.083 1060.09,898.675 1061.99,901.242 
  1063.88,903.784 1065.77,906.302 1067.66,908.795 1069.56,911.263 1071.45,913.707 1073.34,916.125 1075.23,918.518 1077.13,920.886 1079.02,923.228 1080.91,925.546 
  1082.8,927.838 1084.7,930.105 1086.59,932.346 1088.48,934.562 1090.37,936.753 1092.27,938.918 1094.16,941.058 1096.05,943.172 1097.94,945.261 1099.84,947.325 
  1101.73,949.364 1103.62,951.377 1105.51,953.366 1107.41,955.329 1109.3,957.267 1111.19,959.18 1113.08,961.068 1114.98,962.932 1116.87,964.771 1118.76,966.585 
  1120.65,968.374 1122.55,970.14 1124.44,971.88 1126.33,973.597 1128.22,975.29 1130.12,976.958 1132.01,978.603 1133.9,980.225 1135.79,981.822 1137.69,983.397 
  1139.58,984.948 1141.47,986.476 1143.36,987.981 1145.26,989.463 1147.15,990.922 1149.04,992.36 1150.93,993.774 1152.83,995.167 1154.72,996.538 1156.61,997.887 
  1158.5,999.215 1160.4,1000.52 1162.29,1001.81 1164.18,1003.07 1166.07,1004.31 1167.97,1005.54 1169.86,1006.74 1171.75,1007.92 1173.64,1009.08 1175.54,1010.22 
  1177.43,1011.35 1179.32,1012.45 1181.21,1013.53 1183.11,1014.6 1185,1015.64 1186.89,1016.67 1188.78,1017.68 1190.68,1018.67 1192.57,1019.64 1194.46,1020.6 
  1196.35,1021.54 1198.25,1022.46 1200.14,1023.36 1202.03,1024.25 1203.92,1025.12 1205.82,1025.97 1207.71,1026.8 1209.6,1027.63 1211.49,1028.43 1213.39,1029.22 
  1215.28,1029.99 1217.17,1030.75 1219.06,1031.5 1220.96,1032.23 1222.85,1032.94 1224.74,1033.64 1226.64,1034.33 1228.53,1035 1230.42,1035.66 1232.31,1036.3 
  1234.21,1036.93 1236.1,1037.55 1237.99,1038.15 1239.88,1038.75 1241.78,1039.33 1243.67,1039.9 1245.56,1040.45 1247.45,1040.99 1249.35,1041.53 1251.24,1042.05 
  1253.13,1042.56 1255.02,1043.05 1256.92,1043.54 1258.81,1044.02 1260.7,1044.48 1262.59,1044.94 1264.49,1045.38 1266.38,1045.82 1268.27,1046.24 1270.16,1046.66 
  1272.06,1047.06 1273.95,1047.46 1275.84,1047.85 1277.73,1048.23 1279.63,1048.6 1281.52,1048.96 1283.41,1049.31 1285.3,1049.65 1287.2,1049.99 1289.09,1050.32 
  1290.98,1050.64 1292.87,1050.95 1294.77,1051.25 1296.66,1051.55 1298.55,1051.84 1300.44,1052.12 1302.34,1052.4 1304.23,1052.67 1306.12,1052.93 1308.01,1053.19 
  1309.91,1053.43 1311.8,1053.68 1313.69,1053.91 1315.58,1054.15 1317.48,1054.37 1319.37,1054.59 1321.26,1054.8 1323.15,1055.01 1325.05,1055.21 1326.94,1055.41 
  1328.83,1055.6 1330.72,1055.79 1332.62,1055.97 1334.51,1056.15 1336.4,1056.32 1338.29,1056.49 1340.19,1056.65 1342.08,1056.81 1343.97,1056.97 1345.86,1057.12 
  1347.76,1057.26 1349.65,1057.41 1351.54,1057.54 1353.43,1057.68 1355.33,1057.81 1357.22,1057.94 1359.11,1058.06 1361,1058.18 1362.9,1058.3 1364.79,1058.41 
  1366.68,1058.52 1368.57,1058.63 1370.47,1058.73 1372.36,1058.83 1374.25,1058.93 1376.14,1059.03 1378.04,1059.12 1379.93,1059.21 1381.82,1059.3 1383.71,1059.38 
  1385.61,1059.47 1387.5,1059.55 1389.39,1059.62 1391.28,1059.7 1393.18,1059.77 1395.07,1059.84 1396.96,1059.91 1398.85,1059.98 1400.75,1060.04 1402.64,1060.1 
  1404.53,1060.16 1406.42,1060.22 1408.32,1060.28 1410.21,1060.34 1412.1,1060.39 1413.99,1060.44 1415.89,1060.49 1417.78,1060.54 1419.67,1060.59 1421.56,1060.63 
  1423.46,1060.68 1425.35,1060.72 1427.24,1060.76 1429.13,1060.8 1431.03,1060.84 1432.92,1060.88 1434.81,1060.91 1436.7,1060.95 1438.6,1060.98 1440.49,1061.02 
  1442.38,1061.05 1444.27,1061.08 1446.17,1061.11 1448.06,1061.14 1449.95,1061.17 1451.85,1061.19 1453.74,1061.22 1455.63,1061.24 1457.52,1061.27 1459.42,1061.29 
  1461.31,1061.32 1463.2,1061.34 1465.09,1061.36 1466.99,1061.38 1468.88,1061.4 1470.77,1061.42 1472.66,1061.44 1474.56,1061.45 1476.45,1061.47 1478.34,1061.49 
  1480.23,1061.5 1482.13,1061.52 1484.02,1061.54 1485.91,1061.55 1487.8,1061.56 1489.7,1061.58 1491.59,1061.59 1493.48,1061.6 1495.37,1061.61 1497.27,1061.63 
  1499.16,1061.64 1501.05,1061.65 1502.94,1061.66 1504.84,1061.67 1506.73,1061.68 1508.62,1061.69 1510.51,1061.7 1512.41,1061.71 1514.3,1061.71 1516.19,1061.72 
  1518.08,1061.73 1519.98,1061.74 1521.87,1061.74 1523.76,1061.75 1525.65,1061.76 1527.55,1061.77 1529.44,1061.77 1531.33,1061.78 1533.22,1061.78 1535.12,1061.79 
  1537.01,1061.79 1538.9,1061.8 1540.79,1061.8 1542.69,1061.81 1544.58,1061.81 1546.47,1061.82 1548.36,1061.82 1550.26,1061.83 1552.15,1061.83 1554.04,1061.83 
  1555.93,1061.84 1557.83,1061.84 1559.72,1061.84 1561.61,1061.85 1563.5,1061.85 1565.4,1061.85 1567.29,1061.86 1569.18,1061.86 1571.07,1061.86 1572.97,1061.86 
  1574.86,1061.87 1576.75,1061.87 1578.64,1061.87 1580.54,1061.87 1582.43,1061.87 1584.32,1061.88 1586.21,1061.88 1588.11,1061.88 1590,1061.88 1591.89,1061.88 
  1593.78,1061.89 1595.68,1061.89 1597.57,1061.89 1599.46,1061.89 1601.35,1061.89 1603.25,1061.89 1605.14,1061.89 1607.03,1061.89 1608.92,1061.9 1610.82,1061.9 
  1612.71,1061.9 1614.6,1061.9 1616.49,1061.9 1618.39,1061.9 1620.28,1061.9 1622.17,1061.9 1624.06,1061.9 1625.96,1061.9 1627.85,1061.91 1629.74,1061.91 
  1631.63,1061.91 1633.53,1061.91 1635.42,1061.91 1637.31,1061.91 1639.2,1061.91 1641.1,1061.91 1642.99,1061.91 1644.88,1061.91 1646.77,1061.91 1648.67,1061.91 
  1650.56,1061.91 1652.45,1061.91 1654.34,1061.91 1656.24,1061.91 1658.13,1061.91 1660.02,1061.91 1661.91,1061.91 1663.81,1061.91 1665.7,1061.91 1667.59,1061.92 
  1669.48,1061.92 1671.38,1061.92 1673.27,1061.92 1675.16,1061.92 1677.06,1061.92 1678.95,1061.92 1680.84,1061.92 1682.73,1061.92 1684.63,1061.92 1686.52,1061.92 
  1688.41,1061.92 1690.3,1061.92 1692.2,1061.92 1694.09,1061.92 1695.98,1061.92 1697.87,1061.92 1699.77,1061.92 1701.66,1061.92 1703.55,1061.92 1705.44,1061.92 
  1707.34,1061.92 
  "/>
<polyline clip-path="url(#clip0202)" style="stroke:#cc3333; stroke-width:60; stroke-opacity:1; fill:none" points="
  193.318,1061.92 195.211,1061.92 197.104,1061.92 198.996,1061.92 200.889,1061.92 202.781,1061.92 204.674,1061.92 206.566,1061.92 208.459,1061.92 210.351,1061.92 
  212.244,1061.92 214.136,1061.92 216.029,1061.92 217.921,1061.92 219.814,1061.92 221.706,1061.92 223.599,1061.92 225.491,1061.92 227.384,1061.92 229.276,1061.92 
  231.169,1061.92 233.061,1061.92 234.954,1061.92 236.846,1061.92 238.739,1061.92 240.632,1061.92 242.524,1061.92 244.417,1061.92 246.309,1061.92 248.202,1061.92 
  250.094,1061.92 251.987,1061.92 253.879,1061.92 255.772,1061.92 257.664,1061.92 259.557,1061.92 261.449,1061.92 263.342,1061.92 265.234,1061.92 267.127,1061.92 
  269.019,1061.92 270.912,1061.92 272.804,1061.92 274.697,1061.92 276.589,1061.92 278.482,1061.92 280.374,1061.92 282.267,1061.92 284.159,1061.92 286.052,1061.92 
  287.945,1061.92 289.837,1061.92 291.73,1061.92 293.622,1061.92 295.515,1061.92 297.407,1061.92 299.3,1061.92 301.192,1061.92 303.085,1061.92 304.977,1061.92 
  306.87,1061.92 308.762,1061.92 310.655,1061.92 312.547,1061.92 314.44,1061.92 316.332,1061.92 318.225,1061.92 320.117,1061.92 322.01,1061.92 323.902,1061.92 
  325.795,1061.92 327.687,1061.92 329.58,1061.92 331.473,1061.92 333.365,1061.92 335.258,1061.92 337.15,1061.92 339.043,1061.92 340.935,1061.92 342.828,1061.92 
  344.72,1061.92 346.613,1061.92 348.505,1061.92 350.398,1061.92 352.29,1061.92 354.183,1061.92 356.075,1061.92 357.968,1061.92 359.86,1061.92 361.753,1061.92 
  363.645,1061.92 365.538,1061.92 367.43,1061.92 369.323,1061.92 371.215,1061.92 373.108,1061.92 375.001,1061.92 376.893,1061.92 378.786,1061.92 380.678,1061.92 
  382.571,1061.92 384.463,1061.92 386.356,1061.92 388.248,1061.92 390.141,1061.92 392.033,1061.92 393.926,1061.92 395.818,1061.92 397.711,1061.92 399.603,1061.92 
  401.496,1061.92 403.388,1061.92 405.281,1061.92 407.173,1061.92 409.066,1061.92 410.958,1061.92 412.851,1061.92 414.743,1061.92 416.636,1061.92 418.528,1061.92 
  420.421,1061.92 422.314,1061.92 424.206,1061.92 426.099,1061.92 427.991,1061.92 429.884,1061.92 431.776,1061.92 433.669,1061.92 435.561,1061.92 437.454,1061.92 
  439.346,1061.92 441.239,1061.92 443.131,1061.92 445.024,1061.92 446.916,1061.92 448.809,1061.92 450.701,1061.92 452.594,1061.92 454.486,1061.92 456.379,1061.92 
  458.271,1061.92 460.164,1061.92 462.056,1061.92 463.949,1061.92 465.842,1061.92 467.734,1061.92 469.627,1061.92 471.519,1061.92 473.412,1061.92 475.304,1061.92 
  477.197,1061.92 479.089,1061.92 480.982,1061.92 482.874,1061.92 484.767,1061.92 486.659,1061.92 488.552,1061.92 490.444,1061.92 492.337,1061.92 494.229,1061.92 
  496.122,1061.92 498.014,1061.92 499.907,1061.92 501.799,1061.92 503.692,1061.92 505.584,1061.92 507.477,1061.92 509.37,1061.92 511.262,1061.92 513.155,1061.92 
  515.047,1061.92 516.94,1061.92 518.832,1061.92 520.725,1061.92 522.617,1061.92 524.51,1061.92 526.402,1061.92 528.295,1061.92 530.187,1061.92 532.08,1061.92 
  533.972,1061.92 535.865,1061.92 537.757,1061.92 539.65,1061.92 541.542,1061.92 543.435,1061.92 545.327,1061.92 547.22,1061.92 549.112,1061.92 551.005,1061.92 
  552.898,1061.92 554.79,1061.92 556.683,1061.92 558.575,1061.92 560.468,1061.92 562.36,1061.92 564.253,1061.92 566.145,1061.92 568.038,1061.92 569.93,1061.92 
  571.823,1061.92 573.715,1061.92 575.608,1061.92 577.5,1061.92 579.393,1061.92 581.285,1061.92 583.178,1061.92 585.07,1061.91 586.963,1061.91 588.855,1061.91 
  590.748,1061.91 592.64,1061.91 594.533,1061.91 596.425,1061.91 598.318,1061.91 600.211,1061.91 602.103,1061.91 603.996,1061.91 605.888,1061.91 607.781,1061.91 
  609.673,1061.91 611.566,1061.91 613.458,1061.9 615.351,1061.9 617.243,1061.9 619.136,1061.9 621.028,1061.9 622.921,1061.9 624.813,1061.9 626.706,1061.89 
  628.598,1061.89 630.491,1061.89 632.383,1061.89 634.276,1061.89 636.168,1061.88 638.061,1061.88 639.953,1061.88 641.846,1061.88 643.739,1061.87 645.631,1061.87 
  647.524,1061.87 649.416,1061.86 651.309,1061.86 653.201,1061.86 655.094,1061.85 656.986,1061.85 658.879,1061.84 660.771,1061.84 662.664,1061.83 664.556,1061.83 
  666.449,1061.82 668.341,1061.82 670.234,1061.81 672.126,1061.8 674.019,1061.8 675.911,1061.79 677.804,1061.78 679.696,1061.77 681.589,1061.76 683.481,1061.75 
  685.374,1061.74 687.267,1061.73 689.159,1061.72 691.052,1061.71 692.944,1061.7 694.837,1061.68 696.729,1061.67 698.622,1061.65 700.514,1061.64 702.407,1061.62 
  704.299,1061.6 706.192,1061.59 708.084,1061.57 709.977,1061.55 711.869,1061.53 713.762,1061.5 715.654,1061.48 717.547,1061.45 719.439,1061.43 721.332,1061.4 
  723.224,1061.37 725.117,1061.34 727.009,1061.31 728.902,1061.28 730.794,1061.24 732.687,1061.2 734.58,1061.16 736.472,1061.12 738.365,1061.08 740.257,1061.04 
  742.15,1060.99 744.042,1060.94 745.935,1060.89 747.827,1060.83 749.72,1060.77 751.612,1060.71 753.505,1060.65 755.397,1060.59 757.29,1060.52 759.182,1060.44 
  761.075,1060.37 762.967,1060.29 764.86,1060.21 766.752,1060.12 768.645,1060.03 770.537,1059.93 772.43,1059.83 774.322,1059.73 776.215,1059.62 778.108,1059.51 
  780,1059.39 781.893,1059.26 783.785,1059.13 785.678,1059 787.57,1058.85 789.463,1058.71 791.355,1058.55 793.248,1058.39 795.14,1058.22 797.033,1058.05 
  798.925,1057.87 800.818,1057.68 802.71,1057.48 804.603,1057.27 806.495,1057.05 808.388,1056.83 810.28,1056.6 812.173,1056.35 814.065,1056.1 815.958,1055.84 
  817.85,1055.56 819.743,1055.28 821.636,1054.98 823.528,1054.67 825.421,1054.35 827.313,1054.02 829.206,1053.67 831.098,1053.31 832.991,1052.94 834.883,1052.55 
  836.776,1052.14 838.668,1051.73 840.561,1051.29 842.453,1050.84 844.346,1050.37 846.238,1049.89 848.131,1049.39 850.023,1048.87 851.916,1048.33 853.808,1047.77 
  855.701,1047.19 857.593,1046.59 859.486,1045.97 861.378,1045.33 863.271,1044.66 865.163,1043.97 867.056,1043.26 868.949,1042.52 870.841,1041.76 872.734,1040.98 
  874.626,1040.16 876.519,1039.32 878.411,1038.45 880.304,1037.56 882.196,1036.63 884.089,1035.67 885.981,1034.69 887.874,1033.67 889.766,1032.62 891.659,1031.54 
  893.551,1030.42 895.444,1029.27 897.336,1028.08 899.229,1026.86 901.121,1025.6 903.014,1024.3 904.906,1022.96 906.799,1021.59 908.691,1020.17 910.584,1018.72 
  912.477,1017.22 914.369,1015.68 916.262,1014.09 918.154,1012.46 920.047,1010.79 921.939,1009.07 923.832,1007.3 925.724,1005.48 927.617,1003.62 929.509,1001.71 
  931.402,999.741 933.294,997.725 935.187,995.658 937.079,993.537 938.972,991.363 940.864,989.134 942.757,986.85 944.649,984.51 946.542,982.112 948.434,979.657 
  950.327,977.143 952.219,974.57 954.112,971.937 956.005,969.243 957.897,966.487 959.79,963.669 961.682,960.788 963.575,957.844 965.467,954.835 967.36,951.761 
  969.252,948.622 971.145,945.416 973.037,942.144 974.93,938.804 976.822,935.397 978.715,931.921 980.607,928.377 982.5,924.763 984.392,921.08 986.285,917.326 
  988.177,913.503 990.07,909.609 991.962,905.643 993.855,901.607 995.747,897.499 997.64,893.32 999.532,889.069 1001.43,884.747 1003.32,880.352 1005.21,875.886 
  1007.1,871.348 1009,866.739 1010.89,862.058 1012.78,857.305 1014.67,852.482 1016.57,847.587 1018.46,842.622 1020.35,837.587 1022.24,832.483 1024.14,827.309 
  1026.03,822.066 1027.92,816.755 1029.81,811.377 1031.71,805.932 1033.6,800.421 1035.49,794.845 1037.38,789.204 1039.28,783.5 1041.17,777.734 1043.06,771.906 
  1044.95,766.017 1046.85,760.07 1048.74,754.064 1050.63,748.002 1052.52,741.885 1054.42,735.713 1056.31,729.489 1058.2,723.214 1060.09,716.89 1061.99,710.518 
  1063.88,704.1 1065.77,697.637 1067.66,691.132 1069.56,684.586 1071.45,678.001 1073.34,671.38 1075.23,664.723 1077.13,658.034 1079.02,651.315 1080.91,644.567 
  1082.8,637.793 1084.7,630.996 1086.59,624.177 1088.48,617.339 1090.37,610.485 1092.27,603.616 1094.16,596.736 1096.05,589.848 1097.94,582.953 1099.84,576.054 
  1101.73,569.155 1103.62,562.258 1105.51,555.365 1107.41,548.481 1109.3,541.606 1111.19,534.745 1113.08,527.901 1114.98,521.075 1116.87,514.272 1118.76,507.495 
  1120.65,500.745 1122.55,494.027 1124.44,487.344 1126.33,480.698 1128.22,474.093 1130.12,467.532 1132.01,461.018 1133.9,454.553 1135.79,448.142 1137.69,441.788 
  1139.58,435.493 1141.47,429.26 1143.36,423.094 1145.26,416.996 1147.15,410.97 1149.04,405.019 1150.93,399.147 1152.83,393.356 1154.72,387.649 1156.61,382.029 
  1158.5,376.499 1160.4,371.063 1162.29,365.723 1164.18,360.482 1166.07,355.343 1167.97,350.308 1169.86,345.381 1171.75,340.564 1173.64,335.86 1175.54,331.271 
  1177.43,326.801 1179.32,322.451 1181.21,318.224 1183.11,314.122 1185,310.148 1186.89,306.304 1188.78,302.593 1190.68,299.016 1192.57,295.575 1194.46,292.272 
  1196.35,289.11 1198.25,286.09 1200.14,283.215 1202.03,280.484 1203.92,277.901 1205.82,275.467 1207.71,273.183 1209.6,271.051 1211.49,269.071 1213.39,267.245 
  1215.28,265.575 1217.17,264.06 1219.06,262.703 1220.96,261.503 1222.85,260.462 1224.74,259.58 1226.64,258.857 1228.53,258.295 1230.42,257.893 1232.31,257.652 
  1234.21,257.571 1236.1,257.652 1237.99,257.893 1239.88,258.295 1241.78,258.857 1243.67,259.58 1245.56,260.462 1247.45,261.503 1249.35,262.703 1251.24,264.06 
  1253.13,265.575 1255.02,267.245 1256.92,269.071 1258.81,271.051 1260.7,273.183 1262.59,275.467 1264.49,277.901 1266.38,280.484 1268.27,283.215 1270.16,286.09 
  1272.06,289.11 1273.95,292.272 1275.84,295.575 1277.73,299.016 1279.63,302.593 1281.52,306.304 1283.41,310.148 1285.3,314.122 1287.2,318.224 1289.09,322.451 
  1290.98,326.801 1292.87,331.271 1294.77,335.86 1296.66,340.564 1298.55,345.381 1300.44,350.308 1302.34,355.343 1304.23,360.482 1306.12,365.723 1308.01,371.063 
  1309.91,376.499 1311.8,382.029 1313.69,387.649 1315.58,393.356 1317.48,399.147 1319.37,405.019 1321.26,410.97 1323.15,416.996 1325.05,423.094 1326.94,429.26 
  1328.83,435.493 1330.72,441.788 1332.62,448.142 1334.51,454.553 1336.4,461.018 1338.29,467.532 1340.19,474.093 1342.08,480.698 1343.97,487.344 1345.86,494.027 
  1347.76,500.745 1349.65,507.495 1351.54,514.272 1353.43,521.075 1355.33,527.901 1357.22,534.745 1359.11,541.606 1361,548.481 1362.9,555.365 1364.79,562.258 
  1366.68,569.155 1368.57,576.054 1370.47,582.953 1372.36,589.848 1374.25,596.736 1376.14,603.616 1378.04,610.485 1379.93,617.339 1381.82,624.177 1383.71,630.996 
  1385.61,637.793 1387.5,644.567 1389.39,651.315 1391.28,658.034 1393.18,664.723 1395.07,671.38 1396.96,678.001 1398.85,684.586 1400.75,691.132 1402.64,697.637 
  1404.53,704.1 1406.42,710.518 1408.32,716.89 1410.21,723.214 1412.1,729.489 1413.99,735.713 1415.89,741.885 1417.78,748.002 1419.67,754.064 1421.56,760.07 
  1423.46,766.017 1425.35,771.906 1427.24,777.734 1429.13,783.5 1431.03,789.204 1432.92,794.845 1434.81,800.421 1436.7,805.932 1438.6,811.377 1440.49,816.755 
  1442.38,822.066 1444.27,827.309 1446.17,832.483 1448.06,837.587 1449.95,842.622 1451.85,847.587 1453.74,852.482 1455.63,857.305 1457.52,862.058 1459.42,866.739 
  1461.31,871.348 1463.2,875.886 1465.09,880.352 1466.99,884.747 1468.88,889.069 1470.77,893.32 1472.66,897.499 1474.56,901.607 1476.45,905.643 1478.34,909.609 
  1480.23,913.503 1482.13,917.326 1484.02,921.08 1485.91,924.763 1487.8,928.377 1489.7,931.921 1491.59,935.397 1493.48,938.804 1495.37,942.144 1497.27,945.416 
  1499.16,948.622 1501.05,951.761 1502.94,954.835 1504.84,957.844 1506.73,960.788 1508.62,963.669 1510.51,966.487 1512.41,969.243 1514.3,971.937 1516.19,974.57 
  1518.08,977.143 1519.98,979.657 1521.87,982.112 1523.76,984.51 1525.65,986.85 1527.55,989.134 1529.44,991.363 1531.33,993.537 1533.22,995.658 1535.12,997.725 
  1537.01,999.741 1538.9,1001.71 1540.79,1003.62 1542.69,1005.48 1544.58,1007.3 1546.47,1009.07 1548.36,1010.79 1550.26,1012.46 1552.15,1014.09 1554.04,1015.68 
  1555.93,1017.22 1557.83,1018.72 1559.72,1020.17 1561.61,1021.59 1563.5,1022.96 1565.4,1024.3 1567.29,1025.6 1569.18,1026.86 1571.07,1028.08 1572.97,1029.27 
  1574.86,1030.42 1576.75,1031.54 1578.64,1032.62 1580.54,1033.67 1582.43,1034.69 1584.32,1035.67 1586.21,1036.63 1588.11,1037.56 1590,1038.45 1591.89,1039.32 
  1593.78,1040.16 1595.68,1040.98 1597.57,1041.76 1599.46,1042.52 1601.35,1043.26 1603.25,1043.97 1605.14,1044.66 1607.03,1045.33 1608.92,1045.97 1610.82,1046.59 
  1612.71,1047.19 1614.6,1047.77 1616.49,1048.33 1618.39,1048.87 1620.28,1049.39 1622.17,1049.89 1624.06,1050.37 1625.96,1050.84 1627.85,1051.29 1629.74,1051.73 
  1631.63,1052.14 1633.53,1052.55 1635.42,1052.94 1637.31,1053.31 1639.2,1053.67 1641.1,1054.02 1642.99,1054.35 1644.88,1054.67 1646.77,1054.98 1648.67,1055.28 
  1650.56,1055.56 1652.45,1055.84 1654.34,1056.1 1656.24,1056.35 1658.13,1056.6 1660.02,1056.83 1661.91,1057.05 1663.81,1057.27 1665.7,1057.48 1667.59,1057.68 
  1669.48,1057.87 1671.38,1058.05 1673.27,1058.22 1675.16,1058.39 1677.06,1058.55 1678.95,1058.71 1680.84,1058.85 1682.73,1059 1684.63,1059.13 1686.52,1059.26 
  1688.41,1059.39 1690.3,1059.51 1692.2,1059.62 1694.09,1059.73 1695.98,1059.83 1697.87,1059.93 1699.77,1060.03 1701.66,1060.12 1703.55,1060.21 1705.44,1060.29 
  1707.34,1060.37 
  "/>
<polyline clip-path="url(#clip0202)" style="stroke:#218921; stroke-width:60; stroke-opacity:1; fill:none" points="
  193.318,1061.92 195.211,1061.92 197.104,1061.92 198.996,1061.92 200.889,1061.92 202.781,1061.92 204.674,1061.92 206.566,1061.92 208.459,1061.92 210.351,1061.92 
  212.244,1061.92 214.136,1061.92 216.029,1061.92 217.921,1061.92 219.814,1061.92 221.706,1061.92 223.599,1061.92 225.491,1061.92 227.384,1061.92 229.276,1061.92 
  231.169,1061.92 233.061,1061.92 234.954,1061.92 236.846,1061.92 238.739,1061.92 240.632,1061.92 242.524,1061.92 244.417,1061.92 246.309,1061.92 248.202,1061.92 
  250.094,1061.92 251.987,1061.92 253.879,1061.92 255.772,1061.92 257.664,1061.92 259.557,1061.92 261.449,1061.92 263.342,1061.92 265.234,1061.92 267.127,1061.92 
  269.019,1061.92 270.912,1061.92 272.804,1061.92 274.697,1061.92 276.589,1061.92 278.482,1061.92 280.374,1061.92 282.267,1061.92 284.159,1061.92 286.052,1061.92 
  287.945,1061.92 289.837,1061.92 291.73,1061.92 293.622,1061.92 295.515,1061.92 297.407,1061.92 299.3,1061.92 301.192,1061.92 303.085,1061.92 304.977,1061.92 
  306.87,1061.92 308.762,1061.92 310.655,1061.92 312.547,1061.92 314.44,1061.92 316.332,1061.92 318.225,1061.92 320.117,1061.92 322.01,1061.92 323.902,1061.92 
  325.795,1061.92 327.687,1061.92 329.58,1061.92 331.473,1061.92 333.365,1061.92 335.258,1061.92 337.15,1061.92 339.043,1061.92 340.935,1061.92 342.828,1061.92 
  344.72,1061.92 346.613,1061.92 348.505,1061.92 350.398,1061.92 352.29,1061.92 354.183,1061.92 356.075,1061.92 357.968,1061.92 359.86,1061.92 361.753,1061.92 
  363.645,1061.92 365.538,1061.92 367.43,1061.92 369.323,1061.92 371.215,1061.92 373.108,1061.92 375.001,1061.92 376.893,1061.92 378.786,1061.92 380.678,1061.92 
  382.571,1061.92 384.463,1061.92 386.356,1061.92 388.248,1061.92 390.141,1061.92 392.033,1061.92 393.926,1061.92 395.818,1061.92 397.711,1061.92 399.603,1061.92 
  401.496,1061.92 403.388,1061.92 405.281,1061.92 407.173,1061.92 409.066,1061.92 410.958,1061.92 412.851,1061.92 414.743,1061.92 416.636,1061.92 418.528,1061.92 
  420.421,1061.92 422.314,1061.92 424.206,1061.92 426.099,1061.92 427.991,1061.92 429.884,1061.92 431.776,1061.92 433.669,1061.92 435.561,1061.92 437.454,1061.92 
  439.346,1061.92 441.239,1061.92 443.131,1061.92 445.024,1061.92 446.916,1061.92 448.809,1061.92 450.701,1061.92 452.594,1061.92 454.486,1061.92 456.379,1061.92 
  458.271,1061.92 460.164,1061.92 462.056,1061.92 463.949,1061.92 465.842,1061.92 467.734,1061.92 469.627,1061.92 471.519,1061.92 473.412,1061.92 475.304,1061.92 
  477.197,1061.92 479.089,1061.92 480.982,1061.92 482.874,1061.92 484.767,1061.92 486.659,1061.92 488.552,1061.92 490.444,1061.92 492.337,1061.92 494.229,1061.92 
  496.122,1061.92 498.014,1061.92 499.907,1061.92 501.799,1061.92 503.692,1061.92 505.584,1061.92 507.477,1061.92 509.37,1061.92 511.262,1061.92 513.155,1061.92 
  515.047,1061.92 516.94,1061.92 518.832,1061.92 520.725,1061.92 522.617,1061.92 524.51,1061.92 526.402,1061.92 528.295,1061.92 530.187,1061.92 532.08,1061.92 
  533.972,1061.92 535.865,1061.92 537.757,1061.92 539.65,1061.92 541.542,1061.92 543.435,1061.92 545.327,1061.92 547.22,1061.92 549.112,1061.92 551.005,1061.92 
  552.898,1061.92 554.79,1061.92 556.683,1061.92 558.575,1061.92 560.468,1061.92 562.36,1061.92 564.253,1061.92 566.145,1061.92 568.038,1061.92 569.93,1061.92 
  571.823,1061.92 573.715,1061.92 575.608,1061.92 577.5,1061.92 579.393,1061.92 581.285,1061.92 583.178,1061.92 585.07,1061.92 586.963,1061.92 588.855,1061.92 
  590.748,1061.92 592.64,1061.92 594.533,1061.92 596.425,1061.92 598.318,1061.92 600.211,1061.92 602.103,1061.92 603.996,1061.92 605.888,1061.91 607.781,1061.91 
  609.673,1061.91 611.566,1061.91 613.458,1061.91 615.351,1061.91 617.243,1061.91 619.136,1061.91 621.028,1061.91 622.921,1061.91 624.813,1061.91 626.706,1061.9 
  628.598,1061.9 630.491,1061.9 632.383,1061.9 634.276,1061.9 636.168,1061.9 638.061,1061.89 639.953,1061.89 641.846,1061.89 643.739,1061.89 645.631,1061.89 
  647.524,1061.88 649.416,1061.88 651.309,1061.88 653.201,1061.87 655.094,1061.87 656.986,1061.86 658.879,1061.86 660.771,1061.85 662.664,1061.85 664.556,1061.84 
  666.449,1061.84 668.341,1061.83 670.234,1061.82 672.126,1061.82 674.019,1061.81 675.911,1061.8 677.804,1061.79 679.696,1061.78 681.589,1061.77 683.481,1061.76 
  685.374,1061.75 687.267,1061.73 689.159,1061.72 691.052,1061.71 692.944,1061.69 694.837,1061.67 696.729,1061.65 698.622,1061.63 700.514,1061.61 702.407,1061.59 
  704.299,1061.57 706.192,1061.54 708.084,1061.52 709.977,1061.49 711.869,1061.46 713.762,1061.42 715.654,1061.39 717.547,1061.35 719.439,1061.31 721.332,1061.27 
  723.224,1061.23 725.117,1061.18 727.009,1061.13 728.902,1061.08 730.794,1061.02 732.687,1060.96 734.58,1060.9 736.472,1060.83 738.365,1060.76 740.257,1060.68 
  742.15,1060.6 744.042,1060.52 745.935,1060.42 747.827,1060.33 749.72,1060.23 751.612,1060.12 753.505,1060 755.397,1059.88 757.29,1059.76 759.182,1059.62 
  761.075,1059.48 762.967,1059.33 764.86,1059.17 766.752,1059 768.645,1058.82 770.537,1058.64 772.43,1058.44 774.322,1058.23 776.215,1058.01 778.108,1057.78 
  780,1057.54 781.893,1057.28 783.785,1057.01 785.678,1056.73 787.57,1056.43 789.463,1056.11 791.355,1055.78 793.248,1055.44 795.14,1055.07 797.033,1054.69 
  798.925,1054.29 800.818,1053.86 802.71,1053.42 804.603,1052.96 806.495,1052.47 808.388,1051.96 810.28,1051.42 812.173,1050.86 814.065,1050.27 815.958,1049.66 
  817.85,1049.01 819.743,1048.34 821.636,1047.64 823.528,1046.9 825.421,1046.13 827.313,1045.33 829.206,1044.49 831.098,1043.61 832.991,1042.7 834.883,1041.74 
  836.776,1040.75 838.668,1039.71 840.561,1038.63 842.453,1037.5 844.346,1036.33 846.238,1035.1 848.131,1033.83 850.023,1032.51 851.916,1031.13 853.808,1029.7 
  855.701,1028.21 857.593,1026.67 859.486,1025.06 861.378,1023.39 863.271,1021.66 865.163,1019.86 867.056,1018 868.949,1016.07 870.841,1014.07 872.734,1011.99 
  874.626,1009.84 876.519,1007.62 878.411,1005.31 880.304,1002.93 882.196,1000.46 884.089,997.912 885.981,995.277 887.874,992.554 889.766,989.741 891.659,986.836 
  893.551,983.838 895.444,980.745 897.336,977.555 899.229,974.265 901.121,970.875 903.014,967.382 904.906,963.784 906.799,960.08 908.691,956.267 910.584,952.345 
  912.477,948.312 914.369,944.165 916.262,939.903 918.154,935.525 920.047,931.03 921.939,926.415 923.832,921.679 925.724,916.822 927.617,911.841 929.509,906.736 
  931.402,901.506 933.294,896.148 935.187,890.664 937.079,885.051 938.972,879.308 940.864,873.436 942.757,867.434 944.649,861.3 946.542,855.035 948.434,848.639 
  950.327,842.11 952.219,835.45 954.112,828.658 956.005,821.734 957.897,814.679 959.79,807.493 961.682,800.177 963.575,792.731 965.467,785.157 967.36,777.454 
  969.252,769.625 971.145,761.671 973.037,753.592 974.93,745.391 976.822,737.07 978.715,728.63 980.607,720.073 982.5,711.401 984.392,702.618 986.285,693.725 
  988.177,684.724 990.07,675.62 991.962,666.415 993.855,657.111 995.747,647.714 997.64,638.225 999.532,628.649 1001.43,618.989 1003.32,609.25 1005.21,599.435 
  1007.1,589.549 1009,579.597 1010.89,569.582 1012.78,559.511 1014.67,549.387 1016.57,539.216 1018.46,529.003 1020.35,518.754 1022.24,508.474 1024.14,498.168 
  1026.03,487.842 1027.92,477.503 1029.81,467.156 1031.71,456.807 1033.6,446.463 1035.49,436.13 1037.38,425.814 1039.28,415.522 1041.17,405.261 1043.06,395.037 
  1044.95,384.856 1046.85,374.727 1048.74,364.655 1050.63,354.648 1052.52,344.712 1054.42,334.855 1056.31,325.084 1058.2,315.405 1060.09,305.826 1061.99,296.354 
  1063.88,286.996 1065.77,277.758 1067.66,268.649 1069.56,259.674 1071.45,250.841 1073.34,242.157 1075.23,233.628 1077.13,225.262 1079.02,217.065 1080.91,209.043 
  1082.8,201.203 1084.7,193.552 1086.59,186.096 1088.48,178.84 1090.37,171.792 1092.27,164.956 1094.16,158.339 1096.05,151.946 1097.94,145.783 1099.84,139.855 
  1101.73,134.167 1103.62,128.724 1105.51,123.53 1107.41,118.59 1109.3,113.909 1111.19,109.491 1113.08,105.339 1114.98,101.457 1116.87,97.8483 1118.76,94.5165 
  1120.65,91.4644 1122.55,88.6946 1124.44,86.2097 1126.33,84.0119 1128.22,82.1031 1130.12,80.4851 1132.01,79.1593 1133.9,78.1268 1135.79,77.3887 1137.69,76.9455 
  1139.58,76.7978 1141.47,76.9455 1143.36,77.3887 1145.26,78.1268 1147.15,79.1593 1149.04,80.4851 1150.93,82.1031 1152.83,84.0119 1154.72,86.2097 1156.61,88.6946 
  1158.5,91.4644 1160.4,94.5165 1162.29,97.8483 1164.18,101.457 1166.07,105.339 1167.97,109.491 1169.86,113.909 1171.75,118.59 1173.64,123.53 1175.54,128.724 
  1177.43,134.167 1179.32,139.855 1181.21,145.783 1183.11,151.946 1185,158.339 1186.89,164.956 1188.78,171.792 1190.68,178.84 1192.57,186.096 1194.46,193.552 
  1196.35,201.203 1198.25,209.043 1200.14,217.065 1202.03,225.262 1203.92,233.628 1205.82,242.157 1207.71,250.841 1209.6,259.674 1211.49,268.649 1213.39,277.758 
  1215.28,286.996 1217.17,296.354 1219.06,305.826 1220.96,315.405 1222.85,325.084 1224.74,334.855 1226.64,344.712 1228.53,354.648 1230.42,364.655 1232.31,374.727 
  1234.21,384.856 1236.1,395.037 1237.99,405.261 1239.88,415.522 1241.78,425.814 1243.67,436.13 1245.56,446.463 1247.45,456.807 1249.35,467.156 1251.24,477.503 
  1253.13,487.842 1255.02,498.168 1256.92,508.474 1258.81,518.754 1260.7,529.003 1262.59,539.216 1264.49,549.387 1266.38,559.511 1268.27,569.582 1270.16,579.597 
  1272.06,589.549 1273.95,599.435 1275.84,609.25 1277.73,618.989 1279.63,628.649 1281.52,638.225 1283.41,647.714 1285.3,657.111 1287.2,666.415 1289.09,675.62 
  1290.98,684.724 1292.87,693.725 1294.77,702.618 1296.66,711.401 1298.55,720.073 1300.44,728.63 1302.34,737.07 1304.23,745.391 1306.12,753.592 1308.01,761.671 
  1309.91,769.625 1311.8,777.454 1313.69,785.157 1315.58,792.731 1317.48,800.177 1319.37,807.493 1321.26,814.679 1323.15,821.734 1325.05,828.658 1326.94,835.45 
  1328.83,842.11 1330.72,848.639 1332.62,855.035 1334.51,861.3 1336.4,867.434 1338.29,873.436 1340.19,879.308 1342.08,885.051 1343.97,890.664 1345.86,896.148 
  1347.76,901.506 1349.65,906.736 1351.54,911.841 1353.43,916.822 1355.33,921.679 1357.22,926.415 1359.11,931.03 1361,935.525 1362.9,939.903 1364.79,944.165 
  1366.68,948.312 1368.57,952.345 1370.47,956.267 1372.36,960.08 1374.25,963.784 1376.14,967.382 1378.04,970.875 1379.93,974.265 1381.82,977.555 1383.71,980.745 
  1385.61,983.838 1387.5,986.836 1389.39,989.741 1391.28,992.554 1393.18,995.277 1395.07,997.912 1396.96,1000.46 1398.85,1002.93 1400.75,1005.31 1402.64,1007.62 
  1404.53,1009.84 1406.42,1011.99 1408.32,1014.07 1410.21,1016.07 1412.1,1018 1413.99,1019.86 1415.89,1021.66 1417.78,1023.39 1419.67,1025.06 1421.56,1026.67 
  1423.46,1028.21 1425.35,1029.7 1427.24,1031.13 1429.13,1032.51 1431.03,1033.83 1432.92,1035.1 1434.81,1036.33 1436.7,1037.5 1438.6,1038.63 1440.49,1039.71 
  1442.38,1040.75 1444.27,1041.74 1446.17,1042.7 1448.06,1043.61 1449.95,1044.49 1451.85,1045.33 1453.74,1046.13 1455.63,1046.9 1457.52,1047.64 1459.42,1048.34 
  1461.31,1049.01 1463.2,1049.66 1465.09,1050.27 1466.99,1050.86 1468.88,1051.42 1470.77,1051.96 1472.66,1052.47 1474.56,1052.96 1476.45,1053.42 1478.34,1053.86 
  1480.23,1054.29 1482.13,1054.69 1484.02,1055.07 1485.91,1055.44 1487.8,1055.78 1489.7,1056.11 1491.59,1056.43 1493.48,1056.73 1495.37,1057.01 1497.27,1057.28 
  1499.16,1057.54 1501.05,1057.78 1502.94,1058.01 1504.84,1058.23 1506.73,1058.44 1508.62,1058.64 1510.51,1058.82 1512.41,1059 1514.3,1059.17 1516.19,1059.33 
  1518.08,1059.48 1519.98,1059.62 1521.87,1059.76 1523.76,1059.88 1525.65,1060 1527.55,1060.12 1529.44,1060.23 1531.33,1060.33 1533.22,1060.42 1535.12,1060.52 
  1537.01,1060.6 1538.9,1060.68 1540.79,1060.76 1542.69,1060.83 1544.58,1060.9 1546.47,1060.96 1548.36,1061.02 1550.26,1061.08 1552.15,1061.13 1554.04,1061.18 
  1555.93,1061.23 1557.83,1061.27 1559.72,1061.31 1561.61,1061.35 1563.5,1061.39 1565.4,1061.42 1567.29,1061.46 1569.18,1061.49 1571.07,1061.52 1572.97,1061.54 
  1574.86,1061.57 1576.75,1061.59 1578.64,1061.61 1580.54,1061.63 1582.43,1061.65 1584.32,1061.67 1586.21,1061.69 1588.11,1061.71 1590,1061.72 1591.89,1061.73 
  1593.78,1061.75 1595.68,1061.76 1597.57,1061.77 1599.46,1061.78 1601.35,1061.79 1603.25,1061.8 1605.14,1061.81 1607.03,1061.82 1608.92,1061.82 1610.82,1061.83 
  1612.71,1061.84 1614.6,1061.84 1616.49,1061.85 1618.39,1061.85 1620.28,1061.86 1622.17,1061.86 1624.06,1061.87 1625.96,1061.87 1627.85,1061.88 1629.74,1061.88 
  1631.63,1061.88 1633.53,1061.89 1635.42,1061.89 1637.31,1061.89 1639.2,1061.89 1641.1,1061.89 1642.99,1061.9 1644.88,1061.9 1646.77,1061.9 1648.67,1061.9 
  1650.56,1061.9 1652.45,1061.9 1654.34,1061.91 1656.24,1061.91 1658.13,1061.91 1660.02,1061.91 1661.91,1061.91 1663.81,1061.91 1665.7,1061.91 1667.59,1061.91 
  1669.48,1061.91 1671.38,1061.91 1673.27,1061.91 1675.16,1061.92 1677.06,1061.92 1678.95,1061.92 1680.84,1061.92 1682.73,1061.92 1684.63,1061.92 1686.52,1061.92 
  1688.41,1061.92 1690.3,1061.92 1692.2,1061.92 1694.09,1061.92 1695.98,1061.92 1697.87,1061.92 1699.77,1061.92 1701.66,1061.92 1703.55,1061.92 1705.44,1061.92 
  1707.34,1061.92 
  "/>
</svg>
